<?xml version="1.0" encoding="UTF-8" standalone="no"?>
<!-- Created with Inkscape (http://www.inkscape.org/) -->

<svg
   width="1000"
   height="1000"
   viewBox="0 0 264.58333 264.58333"
   version="1.1"
   id="svg1"
   inkscape:version="1.3.2 (091e20e, 2023-11-25, custom)"
   sodipodi:docname="icon.svg"
   xmlns:inkscape="http://www.inkscape.org/namespaces/inkscape"
   xmlns:sodipodi="http://sodipodi.sourceforge.net/DTD/sodipodi-0.dtd"
   xmlns:xlink="http://www.w3.org/1999/xlink"
   xmlns="http://www.w3.org/2000/svg"
   xmlns:svg="http://www.w3.org/2000/svg">
  <sodipodi:namedview
     id="namedview1"
     pagecolor="#ffffff"
     bordercolor="#000000"
     borderopacity="0.25"
     inkscape:showpageshadow="2"
     inkscape:pageopacity="0.0"
     inkscape:pagecheckerboard="0"
     inkscape:deskcolor="#d1d1d1"
     inkscape:document-units="px"
     showguides="true"
     showgrid="false"
     inkscape:lockguides="true"
     inkscape:zoom="0.35355339"
     inkscape:cx="479.4184"
     inkscape:cy="499.21739"
     inkscape:window-width="1920"
     inkscape:window-height="1009"
     inkscape:window-x="1912"
     inkscape:window-y="-8"
     inkscape:window-maximized="1"
     inkscape:current-layer="layer1">
    <inkscape:grid
       id="grid5"
       units="px"
       originx="0"
       originy="0"
       spacingx="1.3229167"
       spacingy="1.3229167"
       empcolor="#0099e5"
       empopacity="0.30196078"
       color="#0015e5"
       opacity="0.14901961"
       empspacing="5"
       dotted="true"
       gridanglex="30"
       gridanglez="30"
       visible="false"
       snapvisiblegridlinesonly="false" />
  </sodipodi:namedview>
  <defs
     id="defs1">
    <inkscape:path-effect
       effect="fillet_chamfer"
       id="path-effect7"
       is_visible="true"
       lpeversion="1"
       nodesatellites_param="C,0,1,1,0,11.641667,0,1 @ C,0,1,1,0,30,0,1 @ C,0,1,1,0,11.641667,0,1 @ C,0,0,1,0,11.641667,0,1 @ C,0,1,1,0,10,0,1 @ C,0,1,1,0,11.641667,0,1"
       radius="0"
       unit="px"
       method="auto"
       mode="F"
       chamfer_steps="1"
       flexible="false"
       use_knot_distance="true"
       apply_no_radius="true"
       apply_with_radius="true"
       only_selected="false"
       hide_knots="false" />
    <linearGradient
       id="linearGradient3"
       inkscape:collect="always">
      <stop
         style="stop-color:#ffbe0b;stop-opacity:1;"
         offset="0"
         id="stop3" />
      <stop
         style="stop-color:#fb5607;stop-opacity:1;"
         offset="0.5"
         id="stop5" />
      <stop
         style="stop-color:#ff006e;stop-opacity:1;"
         offset="1"
         id="stop6" />
    </linearGradient>
    <linearGradient
       inkscape:collect="always"
       xlink:href="#linearGradient3"
       id="linearGradient4"
       x1="0.042242277"
       y1="0.04821657"
       x2="264.57199"
       y2="264.56662"
       gradientUnits="userSpaceOnUse"
       spreadMethod="pad"
       gradientTransform="translate(2.3266428e-6)" />
    <inkscape:path-effect
       effect="fillet_chamfer"
       id="path-effect7-4"
       is_visible="true"
       lpeversion="1"
       nodesatellites_param="C,0,1,1,0,11.641667,0,1 @ C,0,1,1,0,30,0,1 @ C,0,1,1,0,11.641667,0,1 @ C,0,0,1,0,11.641667,0,1 @ C,0,1,1,0,10,0,1 @ C,0,1,1,0,11.641667,0,1"
       radius="0"
       unit="px"
       method="auto"
       mode="F"
       chamfer_steps="1"
       flexible="false"
       use_knot_distance="true"
       apply_no_radius="true"
       apply_with_radius="true"
       only_selected="false"
       hide_knots="false" />
    <inkscape:path-effect
       effect="fillet_chamfer"
       id="path-effect7-0"
       is_visible="true"
       lpeversion="1"
       nodesatellites_param="C,0,1,1,0,11.641667,0,1 @ C,0,1,1,0,30,0,1 @ C,0,1,1,0,11.641667,0,1 @ C,0,0,1,0,11.641667,0,1 @ C,0,1,1,0,10,0,1 @ C,0,1,1,0,11.641667,0,1"
       radius="0"
       unit="px"
       method="auto"
       mode="F"
       chamfer_steps="1"
       flexible="false"
       use_knot_distance="true"
       apply_no_radius="true"
       apply_with_radius="true"
       only_selected="false"
       hide_knots="false" />
  </defs>
  <g
     inkscape:label="Ebene 1"
     inkscape:groupmode="layer"
     id="layer1">
    <rect
       style="display:inline;fill:url(#linearGradient4);stroke:none;stroke-width:0.086441;stroke-linecap:round;stroke-linejoin:round;paint-order:stroke fill markers"
       id="rect2"
       width="264.49689"
       height="264.49689"
       x="0.043223064"
       y="0.043223064"
       inkscape:label="Background" />
    <path
       id="rect11744"
       style="fill:#000000;fill-opacity:0.1"
       inkscape:label="Barcode"
       d="M 1.0726299e-06 30 L 1.000003 30 L 1.000003 0 L 1.0726299e-06 0 L 1.0726299e-06 30 z M 3.0000069 30 L 4.0000088 30 L 4.0000088 0 L 3.0000069 0 L 3.0000069 30 z M 5.0000108 30 L 7.0000146 30 L 7.0000146 0 L 5.0000108 0 L 5.0000108 30 z M 8.0000166 30 L 10.00002 30 L 10.00002 0 L 8.0000166 0 L 8.0000166 30 z M 11.000022 30 L 12.000024 30 L 12.000024 0 L 11.000022 0 L 11.000022 30 z M 13.000026 30 L 14.000028 30 L 14.000028 21.432422 L 13.000026 21.200157 L 13.000026 30 z M 13.000026 17.796856 L 13.157245 17.760235 L 13.414741 17.700293 L 13.439936 17.694375 L 13.672237 17.640352 L 14.000028 17.564063 L 14.000028 0 L 13.000026 0 L 13.000026 17.796856 z M 15.00003 30 L 17.000034 30 L 17.000034 22.129395 L 15.00003 21.664746 L 15.00003 30 z M 15.00003 17.33127 L 17.000034 16.865684 L 17.000034 0 L 15.00003 0 L 15.00003 17.33127 z M 18.000036 30 L 19.000038 30 L 19.000038 22.5 L 18.595401 22.5 L 18.000036 22.361719 L 18.000036 30 z M 18.000036 16.632891 L 18.57071 16.500059 L 18.570962 16.500059 L 18.828206 16.440176 L 19.000038 16.400215 L 19.000038 0 L 18.000036 0 L 18.000036 16.632891 z M 20.00004 30 L 21.000042 30 L 21.000042 22.5 L 20.00004 22.5 L 20.00004 30 z M 20.00004 16.167656 L 20.115686 16.140762 L 20.373182 16.080879 L 20.373434 16.080879 L 20.630678 16.020996 L 20.887923 15.961114 L 20.888427 15.961114 L 21.000042 15.935156 L 21.000042 0 L 20.00004 0 L 20.00004 16.167656 z M 23.000046 30 L 25.000049 30 L 25.000049 22.5 L 23.000046 22.5 L 23.000046 30 z M 23.000046 15.470039 L 23.205387 15.422227 L 23.462883 15.362344 L 23.72038 15.302461 L 23.720883 15.302461 L 23.977876 15.242637 L 24.235372 15.182754 L 24.492868 15.122754 L 24.750364 15.062871 L 24.750868 15.062871 L 25.000049 15.004864 L 25.000049 0 L 23.000046 0 L 23.000046 15.470039 z M 26.000051 30 L 28.000055 30 L 28.000055 22.5 L 26.000051 22.5 L 26.000051 30 z M 26.000051 14.772364 L 26.037844 14.763574 L 26.29534 14.703692 L 26.552585 14.643809 L 26.810081 14.583809 L 26.810585 14.583809 L 27.067577 14.523985 L 27.067829 14.523985 L 27.325073 14.464102 L 27.582569 14.404219 L 27.582821 14.404219 L 27.839813 14.344395 L 28.000055 14.307129 L 28.000055 0 L 26.000051 0 L 26.000051 14.772364 z M 29.000057 30 L 30.000059 30 L 30.000059 22.5 L 29.000057 22.5 L 29.000057 30 z M 29.000057 14.074571 L 29.127294 14.044922 L 29.38479 13.985039 L 29.642286 13.925156 L 29.64279 13.925156 L 29.899782 13.865332 L 30.000059 13.842012 L 30.000059 0 L 29.000057 0 L 29.000057 14.074571 z M 31.000061 30 L 33.000065 30 L 33.000065 22.5 L 31.000061 22.5 L 31.000061 30 z M 31.000061 13.609512 L 31.187262 13.565977 L 31.444758 13.505977 L 31.702254 13.446094 L 31.702758 13.446094 L 31.959751 13.38627 L 32.216995 13.326387 L 32.217247 13.326387 L 32.474491 13.266504 L 32.474743 13.266504 L 32.731987 13.20668 L 32.989483 13.146797 L 33.000065 13.144336 L 33.000065 0 L 31.000061 0 L 31.000061 13.609512 z M 34.000067 30 L 35.000069 30 L 35.000069 22.5 L 34.000067 22.5 L 34.000067 30 z M 34.000067 12.911719 L 34.019467 12.907207 L 34.276963 12.847324 L 34.534459 12.787442 L 34.534963 12.787442 L 34.791956 12.727617 L 35.000069 12.679219 L 35.000069 0 L 34.000067 0 L 34.000067 12.911719 z M 37.000073 30 L 38.000075 30 L 38.000075 22.5 L 37.000073 22.5 L 37.000073 30 z M 37.000073 12.214102 L 37.10942 12.188672 L 37.366916 12.128789 L 37.36742 12.128789 L 37.624161 12.068965 L 37.881657 12.009082 L 38.000075 11.981543 L 38.000075 0 L 37.000073 0 L 37.000073 12.214102 z M 39.000077 30 L 41.00008 30 L 41.00008 22.5 L 39.000077 22.5 L 39.000077 30 z M 39.000077 11.748926 L 39.169137 11.70961 L 39.426633 11.649727 L 39.427137 11.649727 L 39.684129 11.589903 L 39.941625 11.53002 L 40.199121 11.470137 L 40.456618 11.410254 L 40.714114 11.350313 L 40.97161 11.29043 L 41.00008 11.283809 L 41.00008 0 L 39.000077 0 L 39.000077 11.748926 z M 42.000082 30 L 43.000084 30 L 43.000084 22.5 L 42.000082 22.5 L 42.000082 30 z M 42.000082 11.051309 L 42.001594 11.050957 L 42.25909 10.991074 L 42.259594 10.991074 L 42.516586 10.93125 L 42.774082 10.871367 L 43.000084 10.818692 L 43.000084 0 L 42.000082 0 L 42.000082 11.051309 z M 44.000086 30 L 46.00009 30 L 46.00009 22.5 L 44.000086 22.5 L 44.000086 30 z M 44.000086 10.586133 L 44.061311 10.571895 L 44.061563 10.571895 L 44.318807 10.512012 L 44.319059 10.512012 L 44.576303 10.452188 L 44.833799 10.392305 L 45.091295 10.332422 L 45.091295 10.332305 L 45.091799 10.332305 L 45.348791 10.272481 L 45.606287 10.212598 L 45.863784 10.152715 L 46.00009 10.121016 L 46.00009 0 L 44.000086 0 L 44.000086 10.586133 z M 48.000094 30 L 49.000096 30 L 49.000096 22.5 L 48.000094 22.5 L 48.000094 30 z M 48.000094 9.65584 L 48.180996 9.6137697 L 48.1815 9.6137697 L 48.438492 9.5539455 L 48.695989 9.4940626 L 48.953485 9.4341798 L 49.000096 9.42334 L 49.000096 0 L 48.000094 0 L 48.000094 9.65584 z M 50.000098 30 L 51.0001 30 L 51.0001 22.5 L 50.000098 22.5 L 50.000098 30 z M 50.000098 9.1907814 L 50.240713 9.1347658 L 50.498209 9.0748829 L 50.755705 9.0150001 L 51.0001 8.9581056 L 51.0001 0 L 50.000098 0 L 50.000098 9.1907814 z M 52.000102 30 L 54.000106 30 L 54.000106 22.5 L 52.000102 22.5 L 52.000102 30 z M 52.000102 8.7256642 L 52.043186 8.7156447 L 52.043186 8.7155275 L 52.04369 8.7155275 L 52.300682 8.6557033 L 52.558178 8.5958204 L 52.815422 8.5359376 L 52.815674 8.5359376 L 53.072918 8.4760548 L 53.073422 8.4760548 L 53.330414 8.4162306 L 53.58791 8.3563478 L 53.588414 8.3563478 L 53.845658 8.296465 L 54.000106 8.260547 L 54.000106 0 L 52.000102 0 L 52.000102 8.7256642 z M 56.00011 30 L 58.000113 30 L 58.000113 22.5 L 56.00011 22.5 L 56.00011 30 z M 56.00011 7.795547 L 56.163123 7.7575782 L 56.163375 7.7575782 L 56.420619 7.6976954 L 56.677863 7.6378126 L 56.677863 7.6376954 L 56.678871 7.6376954 L 56.935611 7.5779298 L 56.935611 7.5778712 L 56.936115 7.5778712 L 57.193108 7.518047 L 57.450604 7.4581642 L 57.707848 7.3982814 L 57.965344 7.3383985 L 57.965596 7.3383985 L 58.000113 7.3303712 L 58.000113 0 L 56.00011 0 L 56.00011 7.795547 z M 59.000115 30 L 60.000117 30 L 60.000117 22.5 L 59.000115 22.5 L 59.000115 30 z M 59.000115 7.0979884 L 59.253076 7.0391017 L 59.510572 6.9791017 L 59.767816 6.9192189 L 59.76832 6.9192189 L 60.000117 6.865254 L 60.000117 0 L 59.000115 0 L 59.000115 7.0979884 z M 61.000119 30 L 62.000121 30 L 62.000121 22.5 L 61.000119 22.5 L 61.000119 30 z M 61.000119 6.6328126 L 61.055549 6.619922 L 61.055801 6.619922 L 61.313045 6.5600392 L 61.313045 6.559922 L 61.313549 6.559922 L 61.570289 6.5001563 L 61.570289 6.5000978 L 61.570289 6.5000392 L 61.570541 6.5000392 L 61.827785 6.4401563 L 61.828289 6.4401563 L 62.000121 6.4001368 L 62.000121 0 L 61.000119 0 L 61.000119 6.6328126 z M 63.000123 30 L 64.000125 30 L 64.000125 22.5 L 63.000123 22.5 L 63.000123 30 z M 63.000123 6.1676954 L 63.115518 6.1408595 L 63.11577 6.1408595 L 63.373014 6.0809767 L 63.630258 6.0210938 L 63.630258 6.0209767 L 63.631266 6.0209767 L 63.887754 5.9612696 L 64.000125 5.9350782 L 64.000125 0 L 63.000123 0 L 63.000123 6.1676954 z M 64.999875 30 L 66.999879 30 L 66.999879 22.5 L 64.999875 22.5 L 64.999875 30 z M 64.999875 5.7025196 L 65.174982 5.661797 L 65.175486 5.661797 L 65.43273 5.6019141 L 65.432982 5.6019141 L 65.689975 5.5420313 L 65.690478 5.5420313 L 65.947471 5.4822071 L 65.947471 5.4821485 L 65.947471 5.4820899 L 65.947723 5.4820899 L 66.462211 5.3623243 L 66.462715 5.3623243 L 66.719707 5.3025001 L 66.977203 5.2426173 L 66.999879 5.2373438 L 66.999879 0 L 64.999875 0 L 64.999875 5.7025196 z M 67.999881 30 L 68.999883 30 L 68.999883 22.5 L 67.999881 22.5 L 67.999881 30 z M 67.999881 5.0049024 L 68.007439 5.0031446 L 68.264935 4.9432618 L 68.264935 4.9431446 L 68.265439 4.9431446 L 68.52218 4.883379 L 68.52218 4.8832618 L 68.522684 4.8832618 L 68.779676 4.8234376 L 68.779928 4.8234376 L 68.999883 4.7722266 L 68.999883 0 L 67.999881 0 L 67.999881 5.0049024 z M 69.999885 30 L 71.999889 30 L 71.999889 22.5 L 69.999885 22.5 L 69.999885 30 z M 69.999885 4.5397852 L 70.06766 4.5240235 L 70.324652 4.4641407 L 70.5824 4.4042579 L 70.5824 4.4041993 L 70.583156 4.4041993 L 70.839896 4.3444337 L 71.097392 4.2844337 L 71.354637 4.2245508 L 71.355141 4.2245508 L 71.612133 4.1647266 L 71.869629 4.1048438 L 71.999889 4.0745508 L 71.999889 0 L 69.999885 0 L 69.999885 4.5397852 z M 73.999892 30 L 74.999894 30 L 74.999894 22.5 L 73.999892 22.5 L 73.999892 30 z M 73.999892 3.6094336 L 74.187094 3.5658985 L 74.444338 3.5060157 L 74.444842 3.5060157 L 74.701834 3.4461915 L 74.702338 3.4461915 L 74.70259 3.4461915 L 74.959834 3.3863086 L 74.999894 3.3769922 L 74.999894 0 L 73.999892 0 L 73.999892 3.6094336 z M 75.999896 30 L 76.999898 30 L 76.999898 22.5 L 75.999896 22.5 L 75.999896 30 z M 75.999896 3.144375 L 76.247062 3.086836 L 76.247566 3.086836 L 76.504558 3.0270118 L 76.762054 2.967129 L 76.999898 2.9118165 L 76.999898 0 L 75.999896 0 L 75.999896 3.144375 z M 77.9999 30 L 79.999904 30 L 79.999904 22.5 L 77.9999 22.5 L 77.9999 30 z M 77.9999 2.6793164 L 78.050039 2.6676563 L 78.307283 2.6077735 L 78.307535 2.6077735 L 78.564527 2.5479493 L 78.822023 2.4880664 L 79.079267 2.4281836 L 79.336763 2.3683008 L 79.337267 2.3683008 L 79.337771 2.3683008 L 79.594763 2.3084766 L 79.595015 2.3084766 L 79.85226 2.2485938 L 79.85226 2.2484766 L 79.852763 2.2484766 L 79.999904 2.2141993 L 79.999904 0 L 77.9999 0 L 77.9999 2.6793164 z M 80.999906 30 L 81.999908 30 L 81.999908 22.5 L 80.999906 22.5 L 80.999906 30 z M 80.999906 1.9816407 L 81.139488 1.9491211 L 81.139992 1.9491211 L 81.396984 1.8892969 L 81.65448 1.8294141 L 81.654984 1.8294141 L 81.655236 1.8294141 L 81.91248 1.7695313 L 81.999908 1.7491992 L 81.999908 0 L 80.999906 0 L 80.999906 1.9816407 z M 83.999912 30 L 84.999914 30 L 84.999914 22.5 L 83.999912 22.5 L 83.999912 30 z M 83.999912 1.2839649 L 84.229441 1.230586 L 84.229441 1.2305274 L 84.230449 1.2305274 L 84.487189 1.1707617 L 84.487189 1.1707031 L 84.487189 1.1706445 L 84.487441 1.1706445 L 84.999914 1.0513477 L 84.999914 0 L 83.999912 0 L 83.999912 1.2839649 z M 85.999916 30 L 86.999918 30 L 86.999918 22.5 L 85.999916 22.5 L 85.999916 30 z M 85.999916 0.81878907 L 86.031662 0.81140626 L 86.032166 0.81140626 L 86.289158 0.75158204 L 86.289662 0.75158204 L 86.546402 0.69146485 L 86.546402 0.69134767 L 86.546906 0.69134767 L 86.803646 0.63158204 L 86.803646 0.63146485 L 86.804654 0.63146485 L 86.999918 0.5859961 L 86.999918 0 L 85.999916 0 L 85.999916 0.81878907 z M 87.99992 30 L 89.999923 30 L 89.999923 22.5 L 87.99992 22.5 L 87.99992 30 z M 87.99992 0.35332032 L 88.091127 0.33210938 L 88.09163 0.33210938 L 88.348623 0.27228516 L 88.606119 0.21240235 L 88.863363 0.15251953 L 88.863867 0.15240235 L 88.864875 0.15240235 L 89.121363 0.092695314 L 89.121363 0.092578126 L 89.122371 0.092578126 L 89.379111 0.0328125 L 89.519953 0 L 87.99992 0 L 87.99992 0.35332032 z M 90.999925 30 L 92.999929 30 L 92.999929 22.5 L 90.999925 22.5 L 90.999925 30 z M 93.999931 30 L 94.999933 30 L 94.999933 22.5 L 93.999931 22.5 L 93.999931 30 z M 96.999937 30 L 97.999939 30 L 97.999939 22.5 L 96.999937 22.5 L 96.999937 30 z M 98.999941 30 L 99.999943 30 L 99.999943 22.5 L 98.999941 22.5 L 98.999941 30 z M 100.99994 30 L 102.99995 30 L 102.99995 22.144746 L 102.75984 22.200586 L 102.50234 22.260469 L 102.2451 22.320293 L 101.9876 22.380176 L 101.9871 22.380235 L 101.7296 22.440118 L 101.47236 22.499942 L 101.47236 22.5 L 100.99994 22.5 L 100.99994 30 z M 103.99995 30 L 105.99995 30 L 105.99995 21.447129 L 105.0773 21.6617 L 104.30507 21.841289 L 104.30481 21.841348 L 104.30456 21.841348 L 103.99995 21.912188 L 103.99995 30 z M 106.99996 30 L 107.99996 30 L 107.99996 20.982012 L 106.99996 21.214571 L 106.99996 30 z M 109.99996 30 L 110.99996 30 L 110.99996 20.284336 L 110.22697 20.464102 L 109.99996 20.516895 L 109.99996 30 z M 111.99997 30 L 112.99997 30 L 112.99997 19.819278 L 111.99997 20.051836 L 111.99997 30 z M 113.99997 30 L 115.99997 30 L 115.99997 19.121719 L 113.99997 19.586778 L 113.99997 30 z M 116.99998 30 L 117.99998 30 L 117.99998 18.656602 L 117.38723 18.799043 L 117.12973 18.858926 L 117.05037 18.877383 L 116.99998 18.889102 L 116.99998 30 z M 119.99998 30 L 120.99998 30 L 120.99998 17.958867 L 120.99242 17.960625 L 120.84831 17.994141 L 120.75987 18.014707 L 120.73493 18.020508 L 120.72409 18.023028 L 120.70217 18.028125 L 120.68958 18.031055 L 120.68126 18.032989 L 120.67975 18.03334 L 120.59157 18.053789 L 120.47718 18.080449 L 120.2925 18.12334 L 119.99998 18.191367 L 119.99998 30 z M 121.99999 30 L 123.99999 30 L 123.99999 17.261192 L 123.82463 17.301973 L 123.56713 17.361856 L 123.30989 17.421739 L 123.25043 17.435508 L 123.05239 17.481563 L 123.00276 17.493106 L 122.99974 17.493809 L 122.98613 17.496973 L 122.98437 17.497383 L 122.98411 17.497442 L 122.7949 17.541446 L 122.27965 17.66127 L 122.02216 17.721153 L 121.99999 17.726309 L 121.99999 30 z M 124.99999 30 L 127 30 L 127 16.563516 L 126.91433 16.583438 L 126.65683 16.643321 L 126.48576 16.683106 L 126.39934 16.703203 L 126.39455 16.704317 L 126.34769 16.715215 L 126.29226 16.728106 L 126.14209 16.763028 L 125.8846 16.82291 L 125.78079 16.847051 L 125.6271 16.882793 L 125.36961 16.942676 L 125.21239 16.979239 L 125.13075 16.998223 L 125.11236 17.0025 L 125.06172 17.014278 L 125.02619 17.022539 L 125.01738 17.02459 L 124.99999 17.028633 L 124.99999 30 z M 128 30 L 129 30 L 129 16.098399 L 128.9743 16.104375 L 128.7168 16.164258 L 128.45931 16.224141 L 128.20206 16.284024 L 128 16.330957 L 128 30 z "
       transform="matrix(0,2.0510336,-8.8194442,0,264.58333,-2.2e-6)" />
    <path
       style="display:inline;fill:#ffffff;fill-opacity:1;stroke:none;stroke-width:0.1;stroke-linecap:round;stroke-linejoin:round;paint-order:stroke fill markers"
       d="M 52.916666,38.149999 V 208.125 l 30,30 h 90.649994 l 11.64167,-11.64167 0,-29.63333 -11.64167,-11.64167 -57.73333,0 -10,-10 V 38.099999 l -11.641662,-11.630667 -29.63334,0.028 z"
       id="path1-7-1"
       sodipodi:nodetypes="ccccccc"
       inkscape:label="L"
       inkscape:original-d="M 52.916666,26.508332 V 238.125 H 185.20833 v -52.91667 h -79.375 V 26.458332 Z"
       inkscape:path-effect="#path-effect7-0"
       transform="translate(13.229169,-0.00549933)" />
    <path
       id="path11744"
       style="display:inline;fill:#000000;fill-opacity:0.2;stroke:none;stroke-width:0.1;stroke-linecap:round;stroke-linejoin:round;paint-order:stroke fill markers"
       d="m 107.4198,26.458333 -29.632817,0.02791 -11.64115,11.653552 V 208.12321 h 5.17e-4 l 0.527616,0.52762 0.528134,0.52813 5.16e-4,0.001 0.528134,0.52813 0.527616,0.52762 0.528133,0.52813 0.528133,0.52813 0.528133,0.52814 2.112016,2.11201 v 5.2e-4 l 5.17e-4,5.1e-4 1.583883,1.58389 7.921997,7.92199 0.528133,0.52814 2.112015,2.11201 12.044227,12.04578 h 5.16e-4 5.17e-4 l 0.5271,0.52813 0.19482,0.19431 0.333313,0.33331 0.248047,0.24805 0.280086,0.28008 0.365352,0.36536 0.162781,0.16278 0.528133,0.52813 2.112532,2.11305 0.52813,0.52761 0.52814,0.52814 0.52813,0.52813 0.52762,0.52813 h 0.001 l 0.5271,0.52762 0.0341,0.0336 0.49402,0.49454 0.062,0.0615 0.6165,0.6165 0.37828,0.37879 0.23512,0.23461 0.18035,0.18087 0.003,0.003 0.017,0.017 0.0258,0.0258 0.045,0.045 0.0222,0.0222 0.0512,0.0512 0.18138,0.18138 0.29559,0.29559 0.46147,0.46147 0.0667,0.0667 0.3147,0.31471 0.21291,0.2129 0.35605,0.35605 0.17208,0.17209 0.52814,0.52813 0.52813,0.52813 1.05678,1.05678 0.38809,0.38809 5.2e-4,5.2e-4 0.004,0.004 0.0279,0.0279 0.006,0.006 0.10181,0.1018 0.40617,0.40617 0.12144,0.12196 0.52814,0.52762 0.52813,0.52813 0.52813,0.52813 0.52762,0.52814 h 5.2e-4 l 0.52761,0.52761 0.17932,0.1788 0.68316,0.68368 0.0181,0.0181 0.0729,0.0729 0.10387,0.10387 0.0377,0.0377 0.16743,0.16743 0.32246,0.32246 0.52813,0.52813 0.31523,0.31523 0.21291,0.21291 0.52813,0.52813 0.30799,0.30799 0.11369,0.11369 0.0961,0.0961 0.01,0.01 0.17725,0.17725 0.35089,0.35088 0.52813,0.52813 1.05678,1.05678 0.52814,0.52814 0.52813,0.52813 0.52762,0.52813 0.52813,0.52762 0.52813,0.52813 0.52814,0.52814 0.52761,0.52813 h 5.2e-4 l 1.05678,1.05678 0.52814,0.52814 0.52761,0.52761 0.52813,0.52814 0.52814,0.52813 0.52812,0.52813 0.52762,0.52762 0.52813,0.52813 0.77153,0.77153 0.28525,0.28577 0.52814,0.52762 0.13797,0.13797 0.39016,0.39016 0.1819,0.1819 0.003,0.003 0.007,0.007 0.005,0.005 0.017,0.017 0.0413,0.0414 0.0434,0.0434 0.17312,0.17312 0.0568,0.0568 0.52762,0.52814 0.52813,0.52761 0.52814,0.52814 0.52813,0.52813 0.33745,0.33745 0.71933,0.71933 0.52813,0.52814 0.0284,0.0284 0.39119,0.39119 0.10852,0.10852 0.52761,0.52762 0.52814,0.52813 0.52813,0.52813 0.12557,0.12558 0.29611,0.2961 0.10645,0.10645 0.092,0.092 0.43563,0.43563 1.0573,1.0573 0.52762,0.52813 0.41858,0.41807 0.002,0.002 0.061,0.061 0.0419,0.0419 0.005,0.005 0.0589,0.0589 0.46922,0.46922 0.52814,0.52814 0.42168,0.42168 0.10593,0.10645 0.52814,0.52762 0.52813,0.52813 0.52813,0.52813 0.52865,0.52865 0.40463,0.40463 0.1235,0.12351 0.52814,0.52813 0.49144,0.49144 0.0367,0.0367 0.0651,0.0651 0.37156,0.37156 0.0909,0.091 0.52813,0.52813 0.52813,0.52813 0.52762,0.52814 0.49558,0.49506 0.0222,0.0222 0.0103,0.0103 0.0574,0.0574 0.0346,0.0346 0.33538,0.33538 0.1018,0.1018 0.52813,0.52813 0.0873,0.0873 0.44028,0.4408 0.52813,0.52761 0.52814,0.52814 0.41134,0.41134 0.11679,0.11679 0.52762,0.52762 0.52813,0.52813 0.52813,0.52813 0.52917,0.52917 0.52761,0.52762 0.52814,0.52813 0.36638,0.36638 0.12713,0.12713 0.0346,0.0346 0.26768,0.26769 0.002,0.002 0.002,0.002 0.0289,0.0289 0.20464,0.20464 0.0227,0.0232 0.52813,0.52762 0.21446,0.21446 5.1e-4,5.1e-4 5.2e-4,5.2e-4 0.002,0.002 0.001,10e-4 0.003,0.003 0.0444,0.0444 0.26251,0.26251 0.0155,0.0155 0.51263,0.51263 0.33744,0.33744 0.19017,0.19069 0.26872,0.2682 0.26045,0.26045 0.52813,0.52813 0.31471,0.31471 0.21343,0.21343 0.23099,0.23099 0.29662,0.29662 0.52814,0.52814 0.52813,0.52813 0.52813,0.52813 0.52762,0.52762 0.52813,0.52813 0.52917,0.52917 0.52761,0.52813 0.52814,0.52762 0.52813,0.52813 0.44235,0.44235 0.0858,0.0858 0.0372,0.0372 0.29559,0.29559 0.007,0.007 0.009,0.009 0.01,0.01 0.0625,0.0625 0.10594,0.10646 0.52813,0.52761 0.5178,0.5178 0.0103,0.0103 0.1018,0.1018 0.42633,0.42633 0.52865,0.52917 h 0.001 l 0.17674,0.17673 0.23926,0.23926 0.1111,0.11162 0.0326,0.032 0.0858,0.0858 0.0119,0.0124 5.1e-4,5.1e-4 0.001,0.001 0.002,0.002 0.002,0.002 0.39275,0.39274 0.46043,0.46043 0.0677,0.0677 0.42168,0.42168 0.10594,0.10594 0.17569,0.1757 0.35244,0.35243 0.52813,0.52813 0.52813,0.52814 0.52762,0.52761 0.52917,0.52917 0.51831,0.51831 0.01,0.01 0.0305,0.0305 0.2868,0.2868 0.21033,0.21084 0.31781,0.3173 0.21032,0.21032 0.52813,0.52813 0.19896,0.19896 0.015,0.015 0.10077,0.10077 0.21343,0.21343 0.52761,0.52813 0.25632,0.2558 0.27182,0.27182 0.23099,0.23099 0.29714,0.29714 0.52917,0.52917 0.52761,0.52761 0.52814,0.52814 0.47955,0.47955 5.2e-4,5.2e-4 0.005,0.005 0.0434,0.0434 0.31471,0.31471 0.21342,0.21342 0.33693,0.33693 0.19069,0.19069 0.46147,0.46147 0.0667,0.0667 0.28267,0.28267 0.002,0.002 0.004,0.004 0.0264,0.0264 0.2129,0.2129 0.52814,0.52814 0.24236,0.24236 0.28629,0.28629 0.52813,0.52813 0.15245,0.15245 0.001,10e-4 0.001,0.001 0.005,0.005 5.2e-4,5.2e-4 0.0258,0.0258 0.12867,0.12867 0.21342,0.21342 0.3452,0.3452 0.18242,0.18294 0.52813,0.52761 0.52814,0.52814 0.33693,0.33693 0.005,0.005 0.0548,0.0548 0.0408,0.0408 0.063,0.063 0.0274,0.0274 0.0713,0.0713 0.45631,0.45682 0.52813,0.52762 0.14418,0.14418 0.38499,0.38499 0.52813,0.52813 0.52761,0.52762 0.52814,0.52813 0.29765,0.29766 0.23048,0.23047 0.11369,0.11369 0.41444,0.41445 0.52762,0.52761 0.29817,0.29817 0.22996,0.22996 0.52814,0.52814 0.52865,0.52916 0.52813,0.52762 0.52813,0.52813 1.05575,1.05627 2.11202,2.11253 h 0.001 l 0.52814,0.52814 0.52813,0.52813 3.6959,3.69693 h 10e-4 l 0.52813,0.52813 0.52762,0.52814 0.52813,0.52761 1.58389,1.5844 1.58439,1.58492 0.52762,0.52762 h 0.001 l 0.52814,0.52813 0.52813,0.52813 0.0543,0.0548 1.11208,1.11208 1.26555,1.26555 0.20774,0.20774 0.52814,0.52865 0.0114,0.0108 0.51676,0.51728 h 5.2e-4 l 1.05626,1.05627 2.11202,2.11202 1.05626,1.05678 0.52814,0.52813 4.22455,4.22507 h 5.1e-4 l 0.52762,0.52761 h 0.001 l 0.52814,0.52814 0.52813,0.52813 0.52762,0.52813 0.25114,0.25115 1.37563,1.37563 1.01337,1.01389 0.52814,0.52813 h 10e-4 l 2.63963,2.64015 1.5844,1.58492 0.52762,0.52813 h 0.001 l 0.52814,0.52762 0.52813,0.52813 3.16776,3.1688 0.52814,0.52813 h 10e-4 l 0.52813,0.52813 0.52762,0.52814 0.52813,0.52761 0.52814,0.52814 0.52813,0.52813 0.52762,0.52813 1.05626,1.05679 0.52814,0.52813 h 5.1e-4 l 4.22455,4.22506 0.52762,0.52762 h 0.001 l 0.52813,0.52813 1.05575,1.05627 0.52814,0.52762 0.52813,0.52813 0.52813,0.52813 0.52762,0.52814 0.52813,0.52865 0.52814,0.52813 h 5.1e-4 l 4.22455,4.22506 0.52813,0.52814 h 5.2e-4 l 0.52813,0.52761 0.52814,0.52814 0.52813,0.52813 0.52762,0.52813 2.11201,2.11254 0.52813,0.52813 4.22507,4.22506 0.52813,0.52814 h 5.2e-4 l 0.52813,0.52813 1.05627,1.05575 0.52813,0.52813 0.52762,0.52814 1.5844,1.58491 0.52761,0.52762 0.52814,0.52813 3.69693,3.69693 0.52813,0.52814 0.52814,0.52813 h 5.1e-4 l 0.0646,0.0646 0.46354,0.46353 0.25114,0.25115 1.86087,1.86087 1.05627,1.05678 0.52813,0.52814 0.52762,0.52761 3.69693,3.69745 h 5.2e-4 l 0.52761,0.52762 0.52814,0.52813 h 10e-4 l 1.05575,1.05627 2.64015,2.64066 0.31729,0.3173 0.21084,0.21084 0.52813,0.52813 3.69694,3.69693 0.52761,0.52813 h 5.2e-4 l 0.52762,0.52762 3.69693,3.69693 0.52813,0.52813 h 5.2e-4 l 0.52761,0.52814 0.0563,0.0563 0.37052,0.37052 2.74195,2.74195 0.52814,0.52813 0.52813,0.52813 0.52762,0.52814 h 10e-4 l 0.52813,0.52761 0.13333,0.13384 3.56257,3.56309 0.52813,0.52814 3.1688,3.16931 h 5.2e-4 l 1.05575,1.05575 0.52813,0.52814 3.69693,3.69693 1.05575,1.05575 h 0.001 l 0.52813,0.52813 0.52813,0.52813 0.52762,0.52814 3.16828,3.1688 h 0.001 l 0.52814,0.52813 0.52761,0.52762 0.52814,0.52813 0.52813,0.52813 0.52813,0.52813 0.0656,0.0661 2.04639,2.0469 h 5.2e-4 l 1.53582,1.53583 0.57619,0.57619 2.64015,2.64067 0.52813,0.52813 4.22507,4.22506 0.52762,0.52814 h 10e-4 l 0.1974,0.1974 1.91462,1.91461 2.64014,2.64067 2.64119,2.64118 0.52761,0.52813 h 5.2e-4 l 1.05575,1.05575 h 5.2e-4 l 0.52761,0.52814 0.52865,0.52813 4.22403,4.22455 3.16932,3.16931 0.52762,0.52814 h 5.1e-4 l 1.05575,1.05575 h 10e-4 l 0.52813,0.52813 0.52762,0.52813 3.69641,3.69693 h 10e-4 l 0.52762,0.52762 0.52813,0.52813 0.52814,0.52814 0.52761,0.52813 0.52814,0.52865 90.65028,-0.001 11.64166,-11.64167 v -29.6354 l -0.52761,-0.52762 -5.80998,-5.80998 -5.83221,-5.83323 -0.52813,-0.52814 h -5.2e-4 l -0.50436,-0.50384 -0.0232,-0.0238 -0.10646,-0.10646 -0.0506,-0.0506 -0.37104,-0.37104 -1.03249,-1.03197 -1.0573,-1.0573 -0.52762,-0.52762 -0.52813,-0.52813 -0.0119,-0.0124 -0.0114,-0.0114 -0.001,-10e-4 -0.37517,-0.37569 -0.0987,-0.0987 -0.58084,-0.58084 -0.52814,-0.52813 h -5.1e-4 l -1.90635,-1.90687 -1.26194,-1.26193 -0.52813,-0.52814 -0.52813,-0.52813 h -5.2e-4 l -0.52762,-0.52762 -0.50487,-0.50436 -0.0155,-0.016 -1.38648,-1.38699 -1.26193,-1.26194 h -5.2e-4 l -0.50436,-0.50385 -0.0114,-0.0119 -0.0119,-0.0119 -0.0481,-0.0481 -0.005,-0.005 -0.42219,-0.42271 -0.58085,-0.58084 h -5.1e-4 l -0.50437,-0.50385 -0.52813,-0.52813 -1.58492,-1.58492 -0.52813,-0.52813 -0.0233,-0.0238 -0.37621,-0.37672 -0.0987,-0.0987 -0.58084,-0.58084 -0.52814,-0.52813 h -5.1e-4 l -0.15193,-0.15193 -1.12396,-1.12448 -1.89239,-1.89239 -0.52814,-0.52813 h -5.1e-4 l -0.50437,-0.50385 -0.0119,-0.0124 -0.0114,-0.0114 -0.0181,-0.0181 -0.001,-0.001 -0.1695,-0.17002 -0.28629,-0.28628 -0.58084,-0.58085 -2.64118,-2.64118 h -5.2e-4 l -0.52762,-0.52762 -0.0103,-0.0103 -0.0997,-0.10025 -0.26613,-0.26614 -0.0987,-0.0987 -0.58085,-0.58084 -0.52813,-0.52814 -2.64066,-2.64066 -0.52814,-0.52813 -0.52813,-0.52814 h -5.2e-4 l -0.50436,-0.50384 -0.0233,-0.0238 -0.26459,-0.26459 -0.0124,-0.0124 -0.0755,-0.076 -0.17518,-0.17519 -2.64118,-2.64118 -0.52814,-0.52813 -0.52761,-0.52762 -0.52813,-0.52813 -0.52814,-0.52814 h -5.1e-4 l -0.50437,-0.50384 -0.52813,-0.52813 -1.05678,-1.05679 -0.0114,-0.0119 -0.51677,-0.51625 -0.0233,-0.0238 -0.0372,-0.0372 -0.33899,-0.33951 -0.0987,-0.0987 -0.58084,-0.58085 -0.52813,-0.52813 h -5.2e-4 l -0.50436,-0.50385 -0.0233,-0.0238 -0.50487,-0.50436 -0.0155,-0.016 -1.38648,-1.38699 -1.26193,-1.26194 h -5.2e-4 l -0.50436,-0.50385 -0.0119,-0.0124 -0.0114,-0.0114 -0.0481,-0.0481 -0.005,-0.005 -0.42219,-0.42271 -0.58085,-0.58084 h -5.1e-4 l -0.50437,-0.50385 -0.52813,-0.52813 -0.52813,-0.52814 -0.001,-10e-4 -1.05575,-1.05575 -0.0119,-0.0124 -0.51625,-0.51573 -0.0233,-0.0238 -0.0372,-0.0372 -0.339,-0.33951 -0.0987,-0.0987 -0.58084,-0.58084 -0.52814,-0.52813 h -5.1e-4 l -0.50436,-0.50385 -0.32143,-0.32194 -1.71153,-1.71204 -1.1591,-1.15911 h -5.1e-4 l -0.50437,-0.50384 -0.0233,-0.0238 -0.21187,-0.21187 -0.0429,-0.0434 -0.27336,-0.27285 -1.2759,-1.27641 -1.8929,-1.89291 h -5.2e-4 l -0.50436,-0.50385 -0.0233,-0.0238 -0.0134,-0.0134 -0.12816,-0.12868 -0.33331,-0.33331 -0.58085,-0.58084 h -5.1e-4 l -0.26304,-0.26304 -1.64331,-1.64382 -1.26193,-1.26194 -0.1354,-0.13539 V 302.673 l -0.001,-10e-4 -0.52658,-0.52606 v -10e-4 l -0.001,-0.001 -0.5271,-0.52658 -0.001,-0.001 -0.5271,-0.5271 -0.001,-0.001 -0.5271,-0.5271 -10e-4,-10e-4 -0.52761,-0.5271 v -10e-4 l -0.52814,-0.52762 -0.52813,-0.52762 v -5.1e-4 l -0.52813,-0.52814 -0.52762,-0.5271 v -10e-4 l -10e-4,-0.001 -0.5271,-0.52659 -10e-4,-10e-4 -0.5271,-0.5271 -10e-4,-10e-4 -0.5271,-0.5271 -5.1e-4,-10e-4 -0.5271,-0.5271 -0.001,-10e-4 -0.52813,-0.52762 -0.52813,-0.52761 v -5.2e-4 l -0.52762,-0.5271 v -0.001 l -0.52813,-0.52762 -0.52814,-0.52813 -10e-4,-10e-4 -0.5271,-0.52709 -10e-4,-0.001 -0.52659,-0.52606 v -0.001 l -0.001,-10e-4 -0.5271,-0.52658 -0.001,-10e-4 -0.5271,-0.5271 -0.001,-10e-4 -0.52813,-0.52813 -0.52762,-0.5271 v -0.001 l -0.52813,-0.52761 -0.52813,-0.52762 v -5.2e-4 l -0.52865,-0.52813 -0.41393,-0.41341 -0.11317,-0.11317 v -0.002 l -10e-4,-10e-4 -0.5271,-0.52658 -0.001,-10e-4 -0.5271,-0.5271 -0.001,-10e-4 -0.52658,-0.52606 v -10e-4 l -0.001,-0.001 -0.52813,-0.52762 -0.52813,-0.52761 v -5.2e-4 l -0.52814,-0.52813 -0.52761,-0.5271 v -10e-4 l -1.05627,-1.05523 v -5.1e-4 l -10e-4,-10e-4 -0.5271,-0.5271 -10e-4,-0.001 -0.52658,-0.52607 v -0.001 l -10e-4,-10e-4 -0.5271,-0.52659 -0.001,-0.001 -0.52813,-0.52762 v -5.1e-4 l -0.52813,-0.52814 -0.52762,-0.5271 v -10e-4 l -0.52813,-0.52762 -0.0119,-0.0119 -1.04438,-1.04335 v -10e-4 l -5.1e-4,-0.001 -0.5271,-0.52658 v -5.2e-4 l -10e-4,-5.1e-4 -0.5271,-0.5271 -10e-4,-10e-4 -0.5271,-0.5271 -10e-4,-10e-4 -0.52762,-0.5271 v -10e-4 l -0.52813,-0.52762 -0.52814,-0.52761 v -5.2e-4 l -0.52813,-0.52813 -0.52762,-0.5271 v -10e-4 h -0.001 l -0.5271,-0.52658 v -10e-4 l -10e-4,-10e-4 -0.5271,-0.5271 -10e-4,-10e-4 -0.5271,-0.5271 -10e-4,-0.001 -0.52658,-0.52607 v -0.001 l -10e-4,-10e-4 -0.52813,-0.52761 -0.52813,-0.52762 v -5.2e-4 l -0.52813,-0.52813 -0.52762,-0.5271 v -10e-4 l -1.05627,-1.05524 v -5.1e-4 l -0.001,-0.001 -0.52658,-0.52606 v -0.001 l -0.001,-10e-4 -0.5271,-0.52658 v -5.2e-4 l -10e-4,-5.2e-4 -0.5271,-0.5271 -10e-4,-0.001 -0.52814,-0.52813 -0.52761,-0.5271 v -10e-4 l -0.52814,-0.52762 -0.52813,-0.52813 -0.52917,-0.52814 -0.52658,-0.52606 v -0.002 l -10e-4,-10e-4 -0.5271,-0.52659 -10e-4,-0.001 -0.52709,-0.5271 -0.001,-0.001 -0.5271,-0.5271 -10e-4,-0.001 -0.52762,-0.5271 v -0.001 l -0.52813,-0.52762 -0.52813,-0.52761 v -5.2e-4 l -0.52762,-0.5271 v -10e-4 l -0.52813,-0.52762 v -5.2e-4 l -0.52814,-0.52761 -10e-4,-0.001 -0.5271,-0.5271 -10e-4,-0.001 -0.52659,-0.52606 v -0.001 l -0.001,-10e-4 -0.52813,-0.52762 -0.52814,-0.52813 -0.52813,-0.52813 -0.52762,-0.5271 v -0.001 l -0.52813,-0.52761 -0.007,-0.007 -0.52141,-0.52142 -1.05575,-1.05471 v -0.002 l -10e-4,-10e-4 -0.52709,-0.52658 -0.001,-10e-4 -0.52813,-0.52814 -0.52762,-0.5271 v -0.001 l -0.52813,-0.52813 -0.52813,-0.52762 -0.52814,-0.52813 -0.52761,-0.5271 v -0.001 l -0.52814,-0.52761 v -5.2e-4 h -5.1e-4 -5.2e-4 l -0.5271,-0.52658 v -0.001 l -0.001,-10e-4 -0.5271,-0.5271 -0.001,-0.001 -0.52761,-0.5271 v -0.001 l -0.52814,-0.52762 -0.52813,-0.52762 v -5.1e-4 l -0.52813,-0.52814 -0.52762,-0.5271 v -0.001 l -0.52813,-0.52762 -0.52917,-0.52813 -0.5271,-0.52658 v -0.002 l -5.1e-4,-0.001 -0.5271,-0.52658 v -5.2e-4 l -0.001,-0.001 -0.52813,-0.52762 -0.52813,-0.52813 -0.52762,-0.5271 v -0.001 l -0.52813,-0.52814 -0.52814,-0.52761 -0.52813,-0.52814 -0.52762,-0.52709 v -0.001 h -10e-4 l -0.5271,-0.52658 v -0.001 l -10e-4,-0.001 -0.5271,-0.5271 -0.001,-0.001 -0.52813,-0.52813 -0.52762,-0.5271 v -0.001 l -0.52813,-0.52761 -0.52813,-0.52762 v -5.2e-4 l -0.52814,-0.52813 -0.52761,-0.5271 v -0.001 l -1.05627,-1.05524 v -5.1e-4 l -10e-4,-0.001 -0.5271,-0.5271 -5.2e-4,-0.001 -0.52813,-0.52813 -0.52813,-0.52762 -0.52814,-0.52762 v -5.1e-4 l -0.52761,-0.5271 v -10e-4 l -0.52814,-0.52761 -0.007,-0.007 -0.52142,-0.52142 -0.52813,-0.52761 v -5.2e-4 h -5.2e-4 -5.2e-4 l -0.52658,-0.52606 v -0.002 l -10e-4,-0.001 -0.5271,-0.52659 -10e-4,-0.001 -0.52813,-0.52813 -0.52813,-0.52814 -0.52762,-0.5271 v -0.001 l -0.52813,-0.52762 -0.52813,-0.52813 -0.52814,-0.52813 -0.52761,-0.5271 v -0.001 h -10e-4 l -0.5271,-0.52658 v -0.001 l -10e-4,-0.001 -0.5271,-0.5271 -10e-4,-0.001 -0.52762,-0.5271 v -0.001 l -0.52813,-0.52814 -0.52814,-0.52761 -0.52813,-0.52762 v -5.2e-4 l -0.52762,-0.52709 v -0.001 l -0.52813,-0.52761 -0.52917,-0.52814 -0.5271,-0.52658 v -0.002 l -0.001,-0.001 -0.52658,-0.52607 v -0.001 l -0.001,-0.001 -0.52813,-0.52761 -0.52813,-0.52814 -0.52814,-0.52813 -0.52761,-0.5271 v -0.001 l -0.52813,-0.52762 -0.52814,-0.52762 v -5.1e-4 l -0.52865,-0.52814 -0.5271,-0.52658 v -0.002 h -0.001 l -0.5271,-0.52658 v -10e-4 l -0.001,-0.001 -0.52814,-0.52813 -0.52761,-0.5271 v -10e-4 l -0.52814,-0.52761 -0.52813,-0.52762 v -5.1e-4 l -0.52813,-0.52814 -0.52762,-0.5271 v -0.001 l -1.05627,-1.05523 v -5.2e-4 h -5.1e-4 -5.2e-4 l -0.5271,-0.52658 v -0.002 l -0.001,-0.001 -0.52762,-0.5271 v -0.001 l -0.52813,-0.52762 -0.52813,-0.52761 v -5.2e-4 l -0.52814,-0.52813 -0.52761,-0.5271 v -10e-4 l -0.52814,-0.52761 -0.52916,-0.52814 -0.52659,-0.52606 v -0.002 h -0.001 l -0.5271,-0.52658 v -0.002 l -10e-4,-5.2e-4 -0.52814,-0.52813 -0.52813,-0.52814 -0.52762,-0.52709 v -0.001 l -0.52813,-0.52761 -0.52813,-0.52814 -0.52814,-0.52813 -0.52761,-0.5271 v -0.001 h -10e-4 l -0.5271,-0.52659 v -0.001 h -0.001 l -0.5271,-0.52658 v -0.002 l -0.001,-0.001 -0.52813,-0.52813 -0.52762,-0.5271 v -0.001 l -0.52813,-0.52762 -0.52814,-0.52762 v -5.1e-4 l -0.52761,-0.5271 v -0.001 l -0.52814,-0.52761 v -5.2e-4 l -1.05626,-1.05523 v -5.2e-4 h -5.2e-4 -5.2e-4 l -0.52658,-0.52606 v -0.002 l -10e-4,-10e-4 -0.52814,-0.52761 -0.52813,-0.52813 -0.52813,-0.52814 -0.52762,-0.5271 v -0.001 l -0.52813,-0.52762 -0.52814,-0.52813 -1.05574,-1.05472 v -0.002 h -10e-4 l -0.5271,-0.52658 v -0.001 l -10e-4,-0.001 -0.52813,-0.52813 -0.52814,-0.52813 -0.52761,-0.5271 v -10e-4 l -0.52814,-0.52761 -0.0119,-0.0119 -0.51625,-0.51625 -0.52762,-0.5271 v -0.001 l -0.52813,-0.52762 v -5.1e-4 h -5.2e-4 -5.1e-4 l -0.5271,-0.52658 v -0.001 h -10e-4 l -0.5271,-0.52658 v -0.002 l -10e-4,-10e-4 -0.52762,-0.52709 v -0.001 l -0.52813,-0.52761 -0.52813,-0.52762 v -5.2e-4 l -0.52814,-0.52813 -0.52761,-0.5271 v -0.001 l -0.52814,-0.52762 -0.52916,-0.52813 -0.5271,-0.52659 v -0.002 h -10e-4 l -0.52659,-0.52606 v -0.002 l -0.001,-0.001 -0.52813,-0.52762 -0.52814,-0.52813 -0.52761,-0.5271 v -0.001 l -0.52814,-0.52813 -0.52813,-0.52762 -0.52813,-0.52813 -0.52762,-0.5271 v -0.001 h -10e-4 l -0.5271,-0.52658 v -0.002 h -10e-4 l -0.5271,-0.52659 v -0.001 h -10e-4 l -0.53032,-0.5267 v -0.001 l -0.52762,-0.5271 v -0.001 l -0.52813,-0.52762 -0.52814,-0.52813 -0.52813,-0.52813 -0.52761,-0.5271 v -0.001 l -1.05627,-1.05523 v -5.2e-4 h -5.2e-4 -5.1e-4 l -0.5271,-0.52658 v -0.002 h -5.2e-4 l -0.52813,-0.52813 v -10e-4 l -0.52814,-0.52761 -0.52813,-0.52762 v -5.2e-4 l -0.52762,-0.5271 v -0.001 l -0.52813,-0.52762 v -5.1e-4 l -0.52813,-0.52762 -0.52917,-0.52813 -0.52658,-0.52607 v -0.002 h -0.001 l -0.52813,-0.52762 -0.52813,-0.52762 v -5.1e-4 -0.001 l -0.52814,-0.52813 -0.52761,-0.5271 v -0.001 l -0.52814,-0.52762 -0.007,-0.007 -0.52142,-0.52141 -0.52813,-0.52762 v -5.2e-4 l -0.52762,-0.5271 v -0.001 h -0.001 l -0.5271,-0.52658 v -0.001 h -0.001 l -0.52814,-0.52761 v -5.2e-4 l -0.52761,-0.5271 v -0.001 -0.001 l -0.52814,-0.52813 -0.52813,-0.52762 -0.52813,-0.52813 -0.52762,-0.5271 v -10e-4 l -0.52813,-0.52762 -0.52917,-0.52813 -0.5271,-0.52658 v -0.002 h -0.001 l -0.52762,-0.5271 v -0.001 l -0.52813,-0.52761 v -0.001 l -0.52814,-0.52813 -0.52813,-0.52813 -0.52761,-0.5271 v -0.001 l -0.52814,-0.52761 -0.52813,-0.52814 -0.52865,-0.52813 -0.5271,-0.52658 v -0.002 h -0.001 l -0.52814,-0.52762 -0.52813,-0.52762 v -5.1e-4 -10e-4 l -0.52762,-0.5271 v -0.001 l -0.52813,-0.52762 -0.52813,-0.52813 -0.52814,-0.52813 -0.52761,-0.5271 v -0.001 l -1.05627,-1.05524 v -5.1e-4 h -5.2e-4 -5.1e-4 l -0.52814,-0.52814 -0.52761,-0.5271 v -0.001 -0.001 l -0.52813,-0.52762 -0.52814,-0.52813 -0.52813,-0.52814 -0.52762,-0.5271 v -10e-4 l -0.52813,-0.52762 -0.52917,-0.52813 -0.5271,-0.52658 v -0.002 h -5.1e-4 l -0.52814,-0.52814 -0.52813,-0.52761 -0.52813,-0.52813 v -0.001 l -0.52762,-0.5271 v -0.001 l -0.52813,-0.52762 -0.007,-0.007 -0.52142,-0.52141 -0.52813,-0.52762 v -5.1e-4 l -0.52762,-0.5271 v -0.001 h -0.001 l -0.5271,-0.52658 v -0.001 h -0.001 l -0.52814,-0.52814 -0.52813,-0.52813 -0.52761,-0.5271 v -0.001 -0.001 l -0.52814,-0.52761 -0.52813,-0.52814 -0.52813,-0.52813 -0.52762,-0.5271 v -0.001 l -1.05627,-1.05524 v -5.1e-4 h -5.1e-4 -5.2e-4 l -0.52762,-0.5271 v -0.001 l -0.52813,-0.52761 v -5.2e-4 l -0.52813,-0.52761 v -0.001 l -0.52814,-0.52813 -0.52761,-0.5271 v -0.001 l -0.52814,-0.52762 -0.52813,-0.52813 -0.52917,-0.52814 -0.52658,-0.52606 v -0.002 h -0.001 l -0.52813,-0.52762 -0.52814,-0.52761 v -5.2e-4 l -0.52813,-0.52813 v -0.001 l -0.52762,-0.5271 v -0.001 l -0.52813,-0.52762 -0.0119,-0.0119 -0.51624,-0.51625 -0.52762,-0.5271 v -0.001 l -0.52813,-0.52762 v -5.2e-4 h -5.2e-4 -5.2e-4 l -0.5271,-0.52658 v -0.001 h -0.001 l -0.52813,-0.52762 v -5.1e-4 l -0.52762,-0.5271 v -10e-4 l -0.52813,-0.52813 v -5.2e-4 l -0.52814,-0.52813 -0.52813,-0.52813 -0.52762,-0.5271 v -0.001 l -0.52813,-0.52761 -0.52917,-0.52814 -0.52709,-0.52658 v -0.002 h -0.001 l -0.52761,-0.5271 v -0.001 l -0.52814,-0.52762 -0.52813,-0.5271 v -10e-4 -0.001 l -0.52762,-0.5271 v -10e-4 l -0.52813,-0.52813 -0.52813,-0.52762 -0.52814,-0.52813 -0.52761,-0.5271 v -0.001 h -0.001 l -0.5271,-0.52658 v -0.002 h -0.001 l -0.52813,-0.52761 -0.52814,-0.52762 v -5.2e-4 l -0.52761,-0.5271 v -0.001 -10e-4 l -0.52814,-0.52762 -0.52813,-0.52813 -0.52813,-0.52814 -0.52762,-0.5271 v -0.001 l -0.52813,-0.52762 -0.52917,-0.52813 -0.52761,-0.5271 v -10e-4 l -0.52814,-0.52814 -0.52813,-0.52761 v -0.001 l -0.52813,-0.52813 -0.52762,-0.5271 v -0.001 l -0.52813,-0.52762 v -5.2e-4 l -0.52814,-0.52761 -0.52813,-0.52813 -0.52762,-0.5271 v -10e-4 h -0.001 l -0.52813,-0.52761 -0.0388,-0.0388 -0.48938,-0.48938 -0.52813,-0.5271 v -0.001 l -0.52762,-0.5271 v -0.001 -0.001 l -0.52813,-0.52761 -0.52813,-0.52814 -0.52813,-0.52813 -0.52762,-0.5271 v -0.001 l -1.0573,-1.05575 -0.52762,-0.5271 v -0.001 l -0.52813,-0.52813 -0.52813,-0.528132 -0.52814,-0.528133 -0.52761,-0.5271 v -0.001 l -0.52814,-0.528133 -0.52813,-0.528134 -0.52917,-0.528133 -0.52761,-0.527099 v -0.001 l -0.52814,-0.528133 -0.52813,-0.528133 -0.52813,-0.528133 -0.52762,-0.5271 v -0.001 l -0.52813,-0.528133 -0.52813,-0.528134 -0.52814,-0.528133 -0.52761,-0.527099 v -0.001 h -0.001 l -0.52813,-0.528133 -0.52813,-0.528133 -0.52762,-0.527617 v -5.16e-4 l -0.52813,-0.527617 v -5.16e-4 l -0.52814,-0.528134 -0.52813,-0.527616 v -5.17e-4 l -0.52762,-0.527616 v -5.17e-4 l -0.52813,-0.527616 -0.52917,-0.528133 -0.52813,-0.528134 -0.52762,-0.527099 v -0.001 l -0.52813,-0.528133 -0.52813,-0.528133 -0.52813,-0.528133 -0.52762,-0.5271 v -0.001 l -0.52813,-0.528133 -0.52814,-0.528133 -0.52865,-0.528134 -0.52813,-0.528133 -0.52813,-0.528133 -0.52814,-0.528133 -0.52761,-0.5271 v -0.001 l -0.52814,-0.528133 -0.52813,-0.528133 -0.52813,-0.528134 -0.52762,-0.527099 v -0.001 l -1.0573,-1.056266 -0.52813,-0.528133 -0.52762,-0.526583 v -0.001 l -0.52813,-0.528133 -0.52813,-0.528133 -0.52814,-0.528133 -0.52761,-0.5271 v -0.001 l -0.52814,-0.528133 -0.52916,-0.528133 -0.52762,-0.5271 v -0.001 l -0.52813,-0.528134 -0.52814,-0.528133 -0.52813,-0.528133 -0.52762,-0.527099 v -0.001 l -0.52813,-0.528133 -0.52813,-0.528133 -0.52814,-0.528133 -0.52865,-0.528134 -0.52813,-0.528133 -0.52813,-0.528133 -0.52813,-0.528133 -0.52762,-0.527616 v -5.17e-4 l -0.52813,-0.527617 v -5.16e-4 l -0.52814,-0.527617 -0.52761,-0.527099 v -0.001 l -0.52814,-0.528133 -0.52916,-0.528133 -0.52814,-0.528133 -0.52761,-0.5271 v -0.001 l -0.52814,-0.528133 -0.52813,-0.528134 -0.52813,-0.528133 -0.52762,-0.527099 v -0.001 l -0.52813,-0.528133 -0.52813,-0.528133 -0.52917,-0.528133 -0.52762,-0.5271 v -0.001 l -0.52813,-0.528134 -0.52813,-0.528133 -0.52814,-0.528133 -0.52761,-0.527099 v -0.001 l -0.52814,-0.528133 -0.52813,-0.527616 v -5.17e-4 l -0.52762,-0.5271 v -10e-4 l -0.52916,-0.528134 -0.52814,-0.527616 -0.52813,-0.528133 -0.52762,-0.5271 v -10e-4 l -0.52813,-0.528133 -0.52813,-0.528133 -0.52814,-0.527617 v -5.17e-4 l -0.52761,-0.527099 v -10e-4 l -0.52813,-0.528133 -0.52917,-0.528133 -0.52813,-0.528133 -0.52762,-0.5271 v -10e-4 l -0.52813,-0.528133 -0.52814,-0.528134 -0.52761,-0.527099 v -0.001 l -0.52814,-0.528133 -0.52813,-0.528133 -0.52812,-0.528133 -0.52865,-0.528133 -0.52814,-0.528133 -0.52813,-0.528134 -0.52813,-0.528133 -0.52762,-0.527099 v -0.001 l -0.52813,-0.527616 -0.52813,-0.527617 v -5.16e-4 l -0.52814,-0.528133 -0.52761,-0.5271 v -10e-4 l -0.52917,-0.528133 -0.52813,-0.528133 -0.52762,-0.527099 v -10e-4 l -0.52813,-0.528133 -0.52814,-0.527617 v -5.16e-4 l -9.06973,-9.060946 -0.98702,-0.985986 -0.47645,-0.476457 -0.0522,-0.05168 -0.52865,-0.528134 z"
       inkscape:label="Shadow" />
  </g>
</svg>
