<?xml version="1.0" encoding="UTF-8" standalone="no"?>
<!-- Created with Inkscape (http://www.inkscape.org/) -->

<svg
   width="1000"
   height="1000"
   viewBox="0 0 264.58333 264.58333"
   version="1.1"
   id="svg1"
   inkscape:version="1.3.2 (091e20e, 2023-11-25, custom)"
   sodipodi:docname="icon.svg"
   xmlns:inkscape="http://www.inkscape.org/namespaces/inkscape"
   xmlns:sodipodi="http://sodipodi.sourceforge.net/DTD/sodipodi-0.dtd"
   xmlns:xlink="http://www.w3.org/1999/xlink"
   xmlns="http://www.w3.org/2000/svg"
   xmlns:svg="http://www.w3.org/2000/svg">
  <sodipodi:namedview
     id="namedview1"
     pagecolor="#ffffff"
     bordercolor="#000000"
     borderopacity="0.25"
     inkscape:showpageshadow="2"
     inkscape:pageopacity="0.0"
     inkscape:pagecheckerboard="0"
     inkscape:deskcolor="#d1d1d1"
     inkscape:document-units="px"
     showguides="true"
     showgrid="false"
     inkscape:lockguides="true"
     inkscape:zoom="0.5"
     inkscape:cx="377"
     inkscape:cy="667"
     inkscape:window-width="1920"
     inkscape:window-height="1009"
     inkscape:window-x="1912"
     inkscape:window-y="-8"
     inkscape:window-maximized="1"
     inkscape:current-layer="layer1">
    <inkscape:grid
       id="grid5"
       units="px"
       originx="0"
       originy="0"
       spacingx="1.3229167"
       spacingy="1.3229167"
       empcolor="#0099e5"
       empopacity="0.30196078"
       color="#0015e5"
       opacity="0.14901961"
       empspacing="5"
       dotted="true"
       gridanglex="30"
       gridanglez="30"
       visible="false"
       snapvisiblegridlinesonly="false" />
  </sodipodi:namedview>
  <defs
     id="defs1">
    <inkscape:path-effect
       effect="fillet_chamfer"
       id="path-effect7"
       is_visible="true"
       lpeversion="1"
       nodesatellites_param="C,0,1,1,0,11.641667,0,1 @ C,0,1,1,0,30,0,1 @ C,0,1,1,0,11.641667,0,1 @ C,0,0,1,0,11.641667,0,1 @ C,0,1,1,0,10,0,1 @ C,0,1,1,0,11.641667,0,1"
       radius="0"
       unit="px"
       method="auto"
       mode="F"
       chamfer_steps="1"
       flexible="false"
       use_knot_distance="true"
       apply_no_radius="true"
       apply_with_radius="true"
       only_selected="false"
       hide_knots="false" />
    <linearGradient
       id="linearGradient3"
       inkscape:collect="always">
      <stop
         style="stop-color:#ffbe0b;stop-opacity:1;"
         offset="0"
         id="stop3" />
      <stop
         style="stop-color:#fb5607;stop-opacity:1;"
         offset="0.5"
         id="stop5" />
      <stop
         style="stop-color:#ff006e;stop-opacity:1;"
         offset="1"
         id="stop6" />
    </linearGradient>
    <linearGradient
       inkscape:collect="always"
       xlink:href="#linearGradient3"
       id="linearGradient4"
       x1="0.042242277"
       y1="0.04821657"
       x2="264.57199"
       y2="264.56662"
       gradientUnits="userSpaceOnUse"
       spreadMethod="pad"
       gradientTransform="translate(2.3266428e-6)" />
    <inkscape:path-effect
       effect="fillet_chamfer"
       id="path-effect7-4"
       is_visible="true"
       lpeversion="1"
       nodesatellites_param="C,0,1,1,0,11.641667,0,1 @ C,0,1,1,0,30,0,1 @ C,0,1,1,0,11.641667,0,1 @ C,0,0,1,0,11.641667,0,1 @ C,0,1,1,0,10,0,1 @ C,0,1,1,0,11.641667,0,1"
       radius="0"
       unit="px"
       method="auto"
       mode="F"
       chamfer_steps="1"
       flexible="false"
       use_knot_distance="true"
       apply_no_radius="true"
       apply_with_radius="true"
       only_selected="false"
       hide_knots="false" />
    <inkscape:path-effect
       effect="fillet_chamfer"
       id="path-effect7-0"
       is_visible="true"
       lpeversion="1"
       nodesatellites_param="C,0,1,1,0,11.641667,0,1 @ C,0,1,1,0,30,0,1 @ C,0,1,1,0,11.641667,0,1 @ C,0,0,1,0,11.641667,0,1 @ C,0,1,1,0,10,0,1 @ C,0,1,1,0,11.641667,0,1"
       radius="0"
       unit="px"
       method="auto"
       mode="F"
       chamfer_steps="1"
       flexible="false"
       use_knot_distance="true"
       apply_no_radius="true"
       apply_with_radius="true"
       only_selected="false"
       hide_knots="false" />
  </defs>
  <g
     inkscape:label="Ebene 1"
     inkscape:groupmode="layer"
     id="layer1">
    <rect
       style="display:inline;fill:url(#linearGradient4);stroke:none;stroke-width:0.086441;stroke-linecap:round;stroke-linejoin:round;paint-order:stroke fill markers"
       id="rect2"
       width="264.49689"
       height="264.49689"
       x="0.043223064"
       y="0.043223064"
       inkscape:label="Background" />
    <path
       id="rect11744"
       d="M 1.0726299e-06 30 L 1.000003 30 L 1.000003 0 L 1.0726299e-06 0 L 1.0726299e-06 30 z M 3.0000069 30 L 4.0000088 30 L 4.0000088 0 L 3.0000069 0 L 3.0000069 30 z M 5.0000108 30 L 7.0000146 30 L 7.0000146 0 L 5.0000108 0 L 5.0000108 30 z M 8.0000166 30 L 10.00002 30 L 10.00002 0 L 8.0000166 0 L 8.0000166 30 z M 11.000022 30 L 12.000024 30 L 12.000024 0 L 11.000022 0 L 11.000022 30 z M 13.000026 30 L 14.000028 30 L 14.000028 0 L 13.000026 0 L 13.000026 30 z M 15.00003 30 L 17.000034 30 L 17.000034 0 L 15.00003 0 L 15.00003 30 z M 18.000036 30 L 19.000038 30 L 19.000038 0 L 18.000036 0 L 18.000036 30 z M 20.00004 30 L 21.000042 30 L 21.000042 0 L 20.00004 0 L 20.00004 30 z M 23.000046 30 L 25.000049 30 L 25.000049 0 L 23.000046 0 L 23.000046 30 z M 26.000051 30 L 28.000055 30 L 28.000055 0 L 26.000051 0 L 26.000051 30 z M 29.000057 30 L 30.000059 30 L 30.000059 0 L 29.000057 0 L 29.000057 30 z M 31.000061 30 L 33.000065 30 L 33.000065 0 L 31.000061 0 L 31.000061 30 z M 34.000067 30 L 35.000069 30 L 35.000069 0 L 34.000067 0 L 34.000067 30 z M 37.000073 30 L 38.000075 30 L 38.000075 0 L 37.000073 0 L 37.000073 30 z M 39.000077 30 L 41.00008 30 L 41.00008 0 L 39.000077 0 L 39.000077 30 z M 42.000082 30 L 43.000084 30 L 43.000084 0 L 42.000082 0 L 42.000082 30 z M 44.000086 30 L 46.00009 30 L 46.00009 0 L 44.000086 0 L 44.000086 30 z M 48.000094 30 L 49.000096 30 L 49.000096 0 L 48.000094 0 L 48.000094 30 z M 50.000098 30 L 51.0001 30 L 51.0001 0 L 50.000098 0 L 50.000098 30 z M 52.000102 30 L 54.000106 30 L 54.000106 0 L 52.000102 0 L 52.000102 30 z M 56.00011 30 L 58.000113 30 L 58.000113 0 L 56.00011 0 L 56.00011 30 z M 59.000115 30 L 60.000117 30 L 60.000117 0 L 59.000115 0 L 59.000115 30 z M 61.000119 30 L 62.000121 30 L 62.000121 0 L 61.000119 0 L 61.000119 30 z M 63.000123 30 L 64.000125 30 L 64.000125 0 L 63.000123 0 L 63.000123 30 z M 64.999875 30 L 66.999879 30 L 66.999879 0 L 64.999875 0 L 64.999875 30 z M 67.999881 30 L 68.999883 30 L 68.999883 0 L 67.999881 0 L 67.999881 30 z M 69.999885 30 L 71.999889 30 L 71.999889 0 L 69.999885 0 L 69.999885 30 z M 73.999892 30 L 74.999894 30 L 74.999894 0 L 73.999892 0 L 73.999892 30 z M 75.999896 30 L 76.999898 30 L 76.999898 0 L 75.999896 0 L 75.999896 30 z M 77.9999 30 L 79.999904 30 L 79.999904 0 L 77.9999 0 L 77.9999 30 z M 80.999906 30 L 81.999908 30 L 81.999908 0 L 80.999906 0 L 80.999906 30 z M 83.999912 30 L 84.999914 30 L 84.999914 0 L 83.999912 0 L 83.999912 30 z M 85.999916 30 L 86.999918 30 L 86.999918 0 L 85.999916 0 L 85.999916 30 z M 87.99992 30 L 89.999923 30 L 89.999923 0 L 87.99992 0 L 87.99992 30 z M 90.999925 30 L 92.999929 30 L 92.999929 0 L 90.999925 0 L 90.999925 30 z M 93.999931 30 L 94.999933 30 L 94.999933 0 L 93.999931 0 L 93.999931 30 z M 96.999937 30 L 97.999939 30 L 97.999939 0 L 96.999937 0 L 96.999937 30 z M 98.999941 30 L 99.999943 30 L 99.999943 0 L 98.999941 0 L 98.999941 30 z M 100.99994 30 L 102.99995 30 L 102.99995 0 L 100.99994 0 L 100.99994 30 z M 103.99995 30 L 105.99995 30 L 105.99995 0 L 103.99995 0 L 103.99995 30 z M 106.99996 30 L 107.99996 30 L 107.99996 0 L 106.99996 0 L 106.99996 30 z M 109.99996 30 L 110.99996 30 L 110.99996 0 L 109.99996 0 L 109.99996 30 z M 111.99997 30 L 112.99997 30 L 112.99997 0 L 111.99997 0 L 111.99997 30 z M 113.99997 30 L 115.99997 30 L 115.99997 0 L 113.99997 0 L 113.99997 30 z M 116.99998 30 L 117.99998 30 L 117.99998 0 L 116.99998 0 L 116.99998 30 z M 119.99998 30 L 120.99998 30 L 120.99998 0 L 119.99998 0 L 119.99998 30 z M 121.99999 30 L 123.99999 30 L 123.99999 0 L 121.99999 0 L 121.99999 30 z M 124.99999 30 L 127 30 L 127 0 L 124.99999 0 L 124.99999 30 z M 128 30 L 129 30 L 129 0 L 128 0 L 128 30 z "
       style="fill:#000000;fill-opacity:0.1"
       transform="matrix(0,2.0510336,-8.8194442,0,264.58333,-2.2e-6)"
       inkscape:label="Barcode" />
    <path
       id="path14"
       style="display:inline;fill:#000000;fill-opacity:0.2;stroke:none;stroke-width:0.1;stroke-linecap:round;stroke-linejoin:round;paint-order:stroke fill markers"
       d="m 107.4198,26.458333 -29.632817,0.02791 -11.64115,11.653552 V 208.12321 h 5.17e-4 l 0.527616,0.52762 0.528134,0.52813 5.16e-4,0.001 0.528134,0.52813 0.527616,0.52762 0.528133,0.52813 0.528133,0.52813 0.528133,0.52814 2.112016,2.11201 v 5.2e-4 l 5.17e-4,5.1e-4 1.583883,1.58389 7.921997,7.92199 0.528133,0.52814 2.112015,2.11201 12.044227,12.04578 h 5.16e-4 5.17e-4 l 0.5271,0.52813 0.19482,0.19431 0.333313,0.33331 0.248047,0.24805 0.280086,0.28008 0.365352,0.36536 0.162781,0.16278 0.528133,0.52813 2.112532,2.11305 0.52813,0.52761 0.52814,0.52814 0.52813,0.52813 0.52762,0.52813 h 0.001 l 0.5271,0.52762 0.0341,0.0336 0.49402,0.49454 0.062,0.0615 0.6165,0.6165 0.37828,0.37879 0.23512,0.23461 0.18035,0.18087 0.003,0.003 0.017,0.017 0.0258,0.0258 0.045,0.045 0.0222,0.0222 0.0512,0.0512 0.18138,0.18138 0.29559,0.29559 0.46147,0.46147 0.0667,0.0667 0.3147,0.31471 0.21291,0.2129 0.35605,0.35605 0.17208,0.17209 0.52814,0.52813 0.52813,0.52813 1.05678,1.05678 0.38809,0.38809 5.2e-4,5.2e-4 0.004,0.004 0.0279,0.0279 0.006,0.006 0.10181,0.1018 0.40617,0.40617 0.12144,0.12196 0.52814,0.52762 0.52813,0.52813 0.52813,0.52813 0.52762,0.52814 h 5.2e-4 l 0.52761,0.52761 0.17932,0.1788 0.68316,0.68368 0.0181,0.0181 0.0729,0.0729 0.10387,0.10387 0.0377,0.0377 0.16743,0.16743 0.32246,0.32246 0.52813,0.52813 0.31523,0.31523 0.21291,0.21291 0.52813,0.52813 0.30799,0.30799 0.11369,0.11369 0.0961,0.0961 0.01,0.01 0.17725,0.17725 0.35089,0.35088 0.52813,0.52813 1.05678,1.05678 0.52814,0.52814 0.52813,0.52813 0.52762,0.52813 0.52813,0.52762 0.52813,0.52813 0.52814,0.52814 0.52761,0.52813 h 5.2e-4 l 1.05678,1.05678 0.52814,0.52814 0.52761,0.52761 0.52813,0.52814 0.52814,0.52813 0.52812,0.52813 0.52762,0.52762 0.52813,0.52813 0.77153,0.77153 0.28525,0.28577 0.52814,0.52762 0.13797,0.13797 0.39016,0.39016 0.1819,0.1819 0.003,0.003 0.007,0.007 0.005,0.005 0.017,0.017 0.0413,0.0414 0.0434,0.0434 0.17312,0.17312 0.0568,0.0568 0.52762,0.52814 0.52813,0.52761 0.52814,0.52814 0.52813,0.52813 0.33745,0.33745 0.71933,0.71933 0.52813,0.52814 0.0284,0.0284 0.39119,0.39119 0.10852,0.10852 0.52761,0.52762 0.52814,0.52813 0.52813,0.52813 0.12557,0.12558 0.29611,0.2961 0.10645,0.10645 0.092,0.092 0.43563,0.43563 1.0573,1.0573 0.52762,0.52813 0.41858,0.41807 0.002,0.002 0.061,0.061 0.0419,0.0419 0.005,0.005 0.0589,0.0589 0.46922,0.46922 0.52814,0.52814 0.42168,0.42168 0.10593,0.10645 0.52814,0.52762 0.52813,0.52813 0.52813,0.52813 0.52865,0.52865 0.40463,0.40463 0.1235,0.12351 0.52814,0.52813 0.49144,0.49144 0.0367,0.0367 0.0651,0.0651 0.37156,0.37156 0.0909,0.091 0.52813,0.52813 0.52813,0.52813 0.52762,0.52814 0.49558,0.49506 0.0222,0.0222 0.0103,0.0103 0.0574,0.0574 0.0346,0.0346 0.33538,0.33538 0.1018,0.1018 0.52813,0.52813 0.0873,0.0873 0.44028,0.4408 0.52813,0.52761 0.52814,0.52814 0.41134,0.41134 0.11679,0.11679 0.52762,0.52762 0.52813,0.52813 0.52813,0.52813 0.52917,0.52917 0.52761,0.52762 0.52814,0.52813 0.36638,0.36638 0.12713,0.12713 0.0346,0.0346 0.26768,0.26769 0.002,0.002 0.002,0.002 0.0289,0.0289 0.20464,0.20464 0.0227,0.0232 0.52813,0.52762 0.21446,0.21446 5.1e-4,5.1e-4 5.2e-4,5.2e-4 0.002,0.002 0.001,10e-4 0.003,0.003 0.0444,0.0444 0.26251,0.26251 0.0155,0.0155 0.51263,0.51263 0.33744,0.33744 0.19017,0.19069 0.26872,0.2682 0.26045,0.26045 0.52813,0.52813 0.31471,0.31471 0.21343,0.21343 0.23099,0.23099 0.29662,0.29662 0.52814,0.52814 0.52813,0.52813 0.52813,0.52813 0.52762,0.52762 0.52813,0.52813 0.52917,0.52917 0.52761,0.52813 0.52814,0.52762 0.52813,0.52813 0.44235,0.44235 0.0858,0.0858 0.0372,0.0372 0.29559,0.29559 0.007,0.007 0.009,0.009 0.01,0.01 0.0625,0.0625 0.10594,0.10646 0.52813,0.52761 0.5178,0.5178 0.0103,0.0103 0.1018,0.1018 0.42633,0.42633 0.52865,0.52917 h 0.001 l 0.17674,0.17673 0.23926,0.23926 0.1111,0.11162 0.0326,0.032 0.0858,0.0858 0.0119,0.0124 5.1e-4,5.1e-4 0.001,0.001 0.002,0.002 0.002,0.002 0.39275,0.39274 0.46043,0.46043 0.0677,0.0677 0.42168,0.42168 0.10594,0.10594 0.17569,0.1757 0.35244,0.35243 0.52813,0.52813 0.52813,0.52814 0.52762,0.52761 0.52917,0.52917 0.51831,0.51831 0.01,0.01 0.0305,0.0305 0.2868,0.2868 0.21033,0.21084 0.31781,0.3173 0.21032,0.21032 0.52813,0.52813 0.19896,0.19896 0.015,0.015 0.10077,0.10077 0.21343,0.21343 0.52761,0.52813 0.25632,0.2558 0.27182,0.27182 0.23099,0.23099 0.29714,0.29714 0.52917,0.52917 0.52761,0.52761 0.52814,0.52814 0.47955,0.47955 5.2e-4,5.2e-4 0.005,0.005 0.0434,0.0434 0.31471,0.31471 0.21342,0.21342 0.33693,0.33693 0.19069,0.19069 0.46147,0.46147 0.0667,0.0667 0.28267,0.28267 0.002,0.002 0.004,0.004 0.0264,0.0264 0.2129,0.2129 0.52814,0.52814 0.24236,0.24236 0.28629,0.28629 0.52813,0.52813 0.15245,0.15245 0.001,10e-4 0.001,0.001 0.005,0.005 5.2e-4,5.2e-4 0.0258,0.0258 0.12867,0.12867 0.21342,0.21342 0.3452,0.3452 0.18242,0.18294 0.52813,0.52761 0.52814,0.52814 0.33693,0.33693 0.005,0.005 0.0548,0.0548 0.0408,0.0408 0.063,0.063 0.0274,0.0274 0.0713,0.0713 0.45631,0.45682 0.52813,0.52762 0.14418,0.14418 0.38499,0.38499 0.52813,0.52813 0.52761,0.52762 0.52814,0.52813 0.29765,0.29766 0.23048,0.23047 0.11369,0.11369 0.41444,0.41445 0.52762,0.52761 0.29817,0.29817 0.22996,0.22996 0.52814,0.52814 0.52865,0.52916 0.52813,0.52762 0.52813,0.52813 1.05575,1.05627 2.11202,2.11253 h 0.001 l 0.52814,0.52814 0.52813,0.52813 3.6959,3.69693 h 10e-4 l 0.52813,0.52813 0.52762,0.52814 0.52813,0.52761 1.58389,1.5844 1.58439,1.58492 0.52762,0.52762 h 0.001 l 0.52814,0.52813 0.52813,0.52813 0.0543,0.0548 1.11208,1.11208 1.26555,1.26555 0.20774,0.20774 0.52814,0.52865 0.0114,0.0108 0.51676,0.51728 h 5.2e-4 l 1.05626,1.05627 2.11202,2.11202 1.05626,1.05678 0.52814,0.52813 4.22455,4.22507 h 5.1e-4 l 0.52762,0.52761 h 0.001 l 0.52814,0.52814 0.52813,0.52813 0.52762,0.52813 0.25114,0.25115 1.37563,1.37563 1.01337,1.01389 0.52814,0.52813 h 10e-4 l 2.63963,2.64015 1.5844,1.58492 0.52762,0.52813 h 0.001 l 0.52814,0.52762 0.52813,0.52813 3.16776,3.1688 0.52814,0.52813 h 10e-4 l 0.52813,0.52813 0.52762,0.52814 0.52813,0.52761 0.52814,0.52814 0.52813,0.52813 0.52762,0.52813 1.05626,1.05679 0.52814,0.52813 h 5.1e-4 l 4.22455,4.22506 0.52762,0.52762 h 0.001 l 0.52813,0.52813 1.05575,1.05627 0.52814,0.52762 0.52813,0.52813 0.52813,0.52813 0.52762,0.52814 0.52813,0.52865 0.52814,0.52813 h 5.1e-4 l 4.22455,4.22506 0.52813,0.52814 h 5.2e-4 l 0.52813,0.52761 0.52814,0.52814 0.52813,0.52813 0.52762,0.52813 2.11201,2.11254 0.52813,0.52813 4.22507,4.22506 0.52813,0.52814 h 5.2e-4 l 0.52813,0.52813 1.05627,1.05575 0.52813,0.52813 0.52762,0.52814 1.5844,1.58491 0.52761,0.52762 0.52814,0.52813 3.69693,3.69693 0.52813,0.52814 0.52814,0.52813 h 5.1e-4 l 0.0646,0.0646 0.46354,0.46353 0.25114,0.25115 1.86087,1.86087 1.05627,1.05678 0.52813,0.52814 0.52762,0.52761 3.69693,3.69745 h 5.2e-4 l 0.52761,0.52762 0.52814,0.52813 h 10e-4 l 1.05575,1.05627 2.64015,2.64066 0.31729,0.3173 0.21084,0.21084 0.52813,0.52813 3.69694,3.69693 0.52761,0.52813 h 5.2e-4 l 0.52762,0.52762 3.69693,3.69693 0.52813,0.52813 h 5.2e-4 l 0.52761,0.52814 0.0563,0.0563 0.37052,0.37052 2.74195,2.74195 0.52814,0.52813 0.52813,0.52813 0.52762,0.52814 h 10e-4 l 0.52813,0.52761 0.13333,0.13384 3.56257,3.56309 0.52813,0.52814 3.1688,3.16931 h 5.2e-4 l 1.05575,1.05575 0.52813,0.52814 3.69693,3.69693 1.05575,1.05575 h 0.001 l 0.52813,0.52813 0.52813,0.52813 0.52762,0.52814 3.16828,3.1688 h 0.001 l 0.52814,0.52813 0.52761,0.52762 0.52814,0.52813 0.52813,0.52813 0.52813,0.52813 0.0656,0.0661 2.04639,2.0469 h 5.2e-4 l 1.53582,1.53583 0.57619,0.57619 2.64015,2.64067 0.52813,0.52813 4.22507,4.22506 0.52762,0.52814 h 10e-4 l 0.1974,0.1974 1.91462,1.91461 2.64014,2.64067 2.64119,2.64118 0.52761,0.52813 h 5.2e-4 l 1.05575,1.05575 h 5.2e-4 l 0.52761,0.52814 0.52865,0.52813 4.22403,4.22455 3.16932,3.16931 0.52762,0.52814 h 5.1e-4 l 1.05575,1.05575 h 10e-4 l 0.52813,0.52813 0.52762,0.52813 3.69641,3.69693 h 10e-4 l 0.52762,0.52762 0.52813,0.52813 0.52814,0.52814 0.52761,0.52813 0.52814,0.52865 90.65028,-0.001 11.64166,-11.64167 v -29.6354 l -0.52761,-0.52762 -5.80998,-5.80998 -5.83221,-5.83323 -0.52813,-0.52814 h -5.2e-4 l -0.50436,-0.50384 -0.0232,-0.0238 -0.10646,-0.10646 -0.0506,-0.0506 -0.37104,-0.37104 -1.03249,-1.03197 -1.0573,-1.0573 -0.52762,-0.52762 -0.52813,-0.52813 -0.0119,-0.0124 -0.0114,-0.0114 -0.001,-10e-4 -0.37517,-0.37569 -0.0987,-0.0987 -0.58084,-0.58084 -0.52814,-0.52813 h -5.1e-4 l -1.90635,-1.90687 -1.26194,-1.26193 -0.52813,-0.52814 -0.52813,-0.52813 h -5.2e-4 l -0.52762,-0.52762 -0.50487,-0.50436 -0.0155,-0.016 -1.38648,-1.38699 -1.26193,-1.26194 h -5.2e-4 l -0.50436,-0.50385 -0.0114,-0.0119 -0.0119,-0.0119 -0.0481,-0.0481 -0.005,-0.005 -0.42219,-0.42271 -0.58085,-0.58084 h -5.1e-4 l -0.50437,-0.50385 -0.52813,-0.52813 -1.58492,-1.58492 -0.52813,-0.52813 -0.0233,-0.0238 -0.37621,-0.37672 -0.0987,-0.0987 -0.58084,-0.58084 -0.52814,-0.52813 h -5.1e-4 l -0.15193,-0.15193 -1.12396,-1.12448 -1.89239,-1.89239 -0.52814,-0.52813 h -5.1e-4 l -0.50437,-0.50385 -0.0119,-0.0124 -0.0114,-0.0114 -0.0181,-0.0181 -0.001,-0.001 -0.1695,-0.17002 -0.28629,-0.28628 -0.58084,-0.58085 -2.64118,-2.64118 h -5.2e-4 l -0.52762,-0.52762 -0.0103,-0.0103 -0.0997,-0.10025 -0.26613,-0.26614 -0.0987,-0.0987 -0.58085,-0.58084 -0.52813,-0.52814 -2.64066,-2.64066 -0.52814,-0.52813 -0.52813,-0.52814 h -5.2e-4 l -0.50436,-0.50384 -0.0233,-0.0238 -0.26459,-0.26459 -0.0124,-0.0124 -0.0755,-0.076 -0.17518,-0.17519 -2.64118,-2.64118 -0.52814,-0.52813 -0.52761,-0.52762 -0.52813,-0.52813 -0.52814,-0.52814 h -5.1e-4 l -0.50437,-0.50384 -0.52813,-0.52813 -1.05678,-1.05679 -0.0114,-0.0119 -0.51677,-0.51625 -0.0233,-0.0238 -0.0372,-0.0372 -0.33899,-0.33951 -0.0987,-0.0987 -0.58084,-0.58085 -0.52813,-0.52813 h -5.2e-4 l -0.50436,-0.50385 -0.0233,-0.0238 -0.50487,-0.50436 -0.0155,-0.016 -1.38648,-1.38699 -1.26193,-1.26194 h -5.2e-4 l -0.50436,-0.50385 -0.0119,-0.0124 -0.0114,-0.0114 -0.0481,-0.0481 -0.005,-0.005 -0.42219,-0.42271 -0.58085,-0.58084 h -5.1e-4 l -0.50437,-0.50385 -0.52813,-0.52813 -0.52813,-0.52814 -0.001,-10e-4 -1.05575,-1.05575 -0.0119,-0.0124 -0.51625,-0.51573 -0.0233,-0.0238 -0.0372,-0.0372 -0.339,-0.33951 -0.0987,-0.0987 -0.58084,-0.58084 -0.52814,-0.52813 h -5.1e-4 l -0.50436,-0.50385 -0.32143,-0.32194 -1.71153,-1.71204 -1.1591,-1.15911 h -5.1e-4 l -0.50437,-0.50384 -0.0233,-0.0238 -0.21187,-0.21187 -0.0429,-0.0434 -0.27336,-0.27285 -1.2759,-1.27641 -1.8929,-1.89291 h -5.2e-4 l -0.50436,-0.50385 -0.0233,-0.0238 -0.0134,-0.0134 -0.12816,-0.12868 -0.33331,-0.33331 -0.58085,-0.58084 h -5.1e-4 l -0.26304,-0.26304 -1.64331,-1.64382 -1.26193,-1.26194 -0.1354,-0.13539 V 302.673 l -0.001,-10e-4 -0.52658,-0.52606 v -10e-4 l -0.001,-0.001 -0.5271,-0.52658 -0.001,-0.001 -0.5271,-0.5271 -0.001,-0.001 -0.5271,-0.5271 -10e-4,-10e-4 -0.52761,-0.5271 v -10e-4 l -0.52814,-0.52762 -0.52813,-0.52762 v -5.1e-4 l -0.52813,-0.52814 -0.52762,-0.5271 v -10e-4 l -10e-4,-0.001 -0.5271,-0.52659 -10e-4,-10e-4 -0.5271,-0.5271 -10e-4,-10e-4 -0.5271,-0.5271 -5.1e-4,-10e-4 -0.5271,-0.5271 -0.001,-10e-4 -0.52813,-0.52762 -0.52813,-0.52761 v -5.2e-4 l -0.52762,-0.5271 v -0.001 l -0.52813,-0.52762 -0.52814,-0.52813 -10e-4,-10e-4 -0.5271,-0.52709 -10e-4,-0.001 -0.52659,-0.52606 v -0.001 l -0.001,-10e-4 -0.5271,-0.52658 -0.001,-10e-4 -0.5271,-0.5271 -0.001,-10e-4 -0.52813,-0.52813 -0.52762,-0.5271 v -0.001 l -0.52813,-0.52761 -0.52813,-0.52762 v -5.2e-4 l -0.52865,-0.52813 -0.41393,-0.41341 -0.11317,-0.11317 v -0.002 l -10e-4,-10e-4 -0.5271,-0.52658 -0.001,-10e-4 -0.5271,-0.5271 -0.001,-10e-4 -0.52658,-0.52606 v -10e-4 l -0.001,-0.001 -0.52813,-0.52762 -0.52813,-0.52761 v -5.2e-4 l -0.52814,-0.52813 -0.52761,-0.5271 v -10e-4 l -1.05627,-1.05523 v -5.1e-4 l -10e-4,-10e-4 -0.5271,-0.5271 -10e-4,-0.001 -0.52658,-0.52607 v -0.001 l -10e-4,-10e-4 -0.5271,-0.52659 -0.001,-0.001 -0.52813,-0.52762 v -5.1e-4 l -0.52813,-0.52814 -0.52762,-0.5271 v -10e-4 l -0.52813,-0.52762 -0.0119,-0.0119 -1.04438,-1.04335 v -10e-4 l -5.1e-4,-0.001 -0.5271,-0.52658 v -5.2e-4 l -10e-4,-5.1e-4 -0.5271,-0.5271 -10e-4,-10e-4 -0.5271,-0.5271 -10e-4,-10e-4 -0.52762,-0.5271 v -10e-4 l -0.52813,-0.52762 -0.52814,-0.52761 v -5.2e-4 l -0.52813,-0.52813 -0.52762,-0.5271 v -10e-4 h -0.001 l -0.5271,-0.52658 v -10e-4 l -10e-4,-10e-4 -0.5271,-0.5271 -10e-4,-10e-4 -0.5271,-0.5271 -10e-4,-0.001 -0.52658,-0.52607 v -0.001 l -10e-4,-10e-4 -0.52813,-0.52761 -0.52813,-0.52762 v -5.2e-4 l -0.52813,-0.52813 -0.52762,-0.5271 v -10e-4 l -1.05627,-1.05524 v -5.1e-4 l -0.001,-0.001 -0.52658,-0.52606 v -0.001 l -0.001,-10e-4 -0.5271,-0.52658 v -5.2e-4 l -10e-4,-5.2e-4 -0.5271,-0.5271 -10e-4,-0.001 -0.52814,-0.52813 -0.52761,-0.5271 v -10e-4 l -0.52814,-0.52762 -0.52813,-0.52813 -0.52917,-0.52814 -0.52658,-0.52606 v -0.002 l -10e-4,-10e-4 -0.5271,-0.52659 -10e-4,-0.001 -0.52709,-0.5271 -0.001,-0.001 -0.5271,-0.5271 -10e-4,-0.001 -0.52762,-0.5271 v -0.001 l -0.52813,-0.52762 -0.52813,-0.52761 v -5.2e-4 l -0.52762,-0.5271 v -10e-4 l -0.52813,-0.52762 v -5.2e-4 l -0.52814,-0.52761 -10e-4,-0.001 -0.5271,-0.5271 -10e-4,-0.001 -0.52659,-0.52606 v -0.001 l -0.001,-10e-4 -0.52813,-0.52762 -0.52814,-0.52813 -0.52813,-0.52813 -0.52762,-0.5271 v -0.001 l -0.52813,-0.52761 -0.007,-0.007 -0.52141,-0.52142 -1.05575,-1.05471 v -0.002 l -10e-4,-10e-4 -0.52709,-0.52658 -0.001,-10e-4 -0.52813,-0.52814 -0.52762,-0.5271 v -0.001 l -0.52813,-0.52813 -0.52813,-0.52762 -0.52814,-0.52813 -0.52761,-0.5271 v -0.001 l -0.52814,-0.52761 v -5.2e-4 h -5.1e-4 -5.2e-4 l -0.5271,-0.52658 v -0.001 l -0.001,-10e-4 -0.5271,-0.5271 -0.001,-0.001 -0.52761,-0.5271 v -0.001 l -0.52814,-0.52762 -0.52813,-0.52762 v -5.1e-4 l -0.52813,-0.52814 -0.52762,-0.5271 v -0.001 l -0.52813,-0.52762 -0.52917,-0.52813 -0.5271,-0.52658 v -0.002 l -5.1e-4,-0.001 -0.5271,-0.52658 v -5.2e-4 l -0.001,-0.001 -0.52813,-0.52762 -0.52813,-0.52813 -0.52762,-0.5271 v -0.001 l -0.52813,-0.52814 -0.52814,-0.52761 -0.52813,-0.52814 -0.52762,-0.52709 v -0.001 h -10e-4 l -0.5271,-0.52658 v -0.001 l -10e-4,-0.001 -0.5271,-0.5271 -0.001,-0.001 -0.52813,-0.52813 -0.52762,-0.5271 v -0.001 l -0.52813,-0.52761 -0.52813,-0.52762 v -5.2e-4 l -0.52814,-0.52813 -0.52761,-0.5271 v -0.001 l -1.05627,-1.05524 v -5.1e-4 l -10e-4,-0.001 -0.5271,-0.5271 -5.2e-4,-0.001 -0.52813,-0.52813 -0.52813,-0.52762 -0.52814,-0.52762 v -5.1e-4 l -0.52761,-0.5271 v -10e-4 l -0.52814,-0.52761 -0.007,-0.007 -0.52142,-0.52142 -0.52813,-0.52761 v -5.2e-4 h -5.2e-4 -5.2e-4 l -0.52658,-0.52606 v -0.002 l -10e-4,-0.001 -0.5271,-0.52659 -10e-4,-0.001 -0.52813,-0.52813 -0.52813,-0.52814 -0.52762,-0.5271 v -0.001 l -0.52813,-0.52762 -0.52813,-0.52813 -0.52814,-0.52813 -0.52761,-0.5271 v -0.001 h -10e-4 l -0.5271,-0.52658 v -0.001 l -10e-4,-0.001 -0.5271,-0.5271 -10e-4,-0.001 -0.52762,-0.5271 v -0.001 l -0.52813,-0.52814 -0.52814,-0.52761 -0.52813,-0.52762 v -5.2e-4 l -0.52762,-0.52709 v -0.001 l -0.52813,-0.52761 -0.52917,-0.52814 -0.5271,-0.52658 v -0.002 l -0.001,-0.001 -0.52658,-0.52607 v -0.001 l -0.001,-0.001 -0.52813,-0.52761 -0.52813,-0.52814 -0.52814,-0.52813 -0.52761,-0.5271 v -0.001 l -0.52813,-0.52762 -0.52814,-0.52762 v -5.1e-4 l -0.52865,-0.52814 -0.5271,-0.52658 v -0.002 h -0.001 l -0.5271,-0.52658 v -10e-4 l -0.001,-0.001 -0.52814,-0.52813 -0.52761,-0.5271 v -10e-4 l -0.52814,-0.52761 -0.52813,-0.52762 v -5.1e-4 l -0.52813,-0.52814 -0.52762,-0.5271 v -0.001 l -1.05627,-1.05523 v -5.2e-4 h -5.1e-4 -5.2e-4 l -0.5271,-0.52658 v -0.002 l -0.001,-0.001 -0.52762,-0.5271 v -0.001 l -0.52813,-0.52762 -0.52813,-0.52761 v -5.2e-4 l -0.52814,-0.52813 -0.52761,-0.5271 v -10e-4 l -0.52814,-0.52761 -0.52916,-0.52814 -0.52659,-0.52606 v -0.002 h -0.001 l -0.5271,-0.52658 v -0.002 l -10e-4,-5.2e-4 -0.52814,-0.52813 -0.52813,-0.52814 -0.52762,-0.52709 v -0.001 l -0.52813,-0.52761 -0.52813,-0.52814 -0.52814,-0.52813 -0.52761,-0.5271 v -0.001 h -10e-4 l -0.5271,-0.52659 v -0.001 h -0.001 l -0.5271,-0.52658 v -0.002 l -0.001,-0.001 -0.52813,-0.52813 -0.52762,-0.5271 v -0.001 l -0.52813,-0.52762 -0.52814,-0.52762 v -5.1e-4 l -0.52761,-0.5271 v -0.001 l -0.52814,-0.52761 v -5.2e-4 l -1.05626,-1.05523 v -5.2e-4 h -5.2e-4 -5.2e-4 l -0.52658,-0.52606 v -0.002 l -10e-4,-10e-4 -0.52814,-0.52761 -0.52813,-0.52813 -0.52813,-0.52814 -0.52762,-0.5271 v -0.001 l -0.52813,-0.52762 -0.52814,-0.52813 -1.05574,-1.05472 v -0.002 h -10e-4 l -0.5271,-0.52658 v -0.001 l -10e-4,-0.001 -0.52813,-0.52813 -0.52814,-0.52813 -0.52761,-0.5271 v -10e-4 l -0.52814,-0.52761 -0.0119,-0.0119 -0.51625,-0.51625 -0.52762,-0.5271 v -0.001 l -0.52813,-0.52762 v -5.1e-4 h -5.2e-4 -5.1e-4 l -0.5271,-0.52658 v -0.001 h -10e-4 l -0.5271,-0.52658 v -0.002 l -10e-4,-10e-4 -0.52762,-0.52709 v -0.001 l -0.52813,-0.52761 -0.52813,-0.52762 v -5.2e-4 l -0.52814,-0.52813 -0.52761,-0.5271 v -0.001 l -0.52814,-0.52762 -0.52916,-0.52813 -0.5271,-0.52659 v -0.002 h -10e-4 l -0.52659,-0.52606 v -0.002 l -0.001,-0.001 -0.52813,-0.52762 -0.52814,-0.52813 -0.52761,-0.5271 v -0.001 l -0.52814,-0.52813 -0.52813,-0.52762 -0.52813,-0.52813 -0.52762,-0.5271 v -0.001 h -10e-4 l -0.5271,-0.52658 v -0.002 h -10e-4 l -0.5271,-0.52659 v -0.001 h -10e-4 l -0.53032,-0.5267 v -0.001 l -0.52762,-0.5271 v -0.001 l -0.52813,-0.52762 -0.52814,-0.52813 -0.52813,-0.52813 -0.52761,-0.5271 v -0.001 l -1.05627,-1.05523 v -5.2e-4 h -5.2e-4 -5.1e-4 l -0.5271,-0.52658 v -0.002 h -5.2e-4 l -0.52813,-0.52813 v -10e-4 l -0.52814,-0.52761 -0.52813,-0.52762 v -5.2e-4 l -0.52762,-0.5271 v -0.001 l -0.52813,-0.52762 v -5.1e-4 l -0.52813,-0.52762 -0.52917,-0.52813 -0.52658,-0.52607 v -0.002 h -0.001 l -0.52813,-0.52762 -0.52813,-0.52762 v -5.1e-4 -0.001 l -0.52814,-0.52813 -0.52761,-0.5271 v -0.001 l -0.52814,-0.52762 -0.007,-0.007 -0.52142,-0.52141 -0.52813,-0.52762 v -5.2e-4 l -0.52762,-0.5271 v -0.001 h -0.001 l -0.5271,-0.52658 v -0.001 h -0.001 l -0.52814,-0.52761 v -5.2e-4 l -0.52761,-0.5271 v -0.001 -0.001 l -0.52814,-0.52813 -0.52813,-0.52762 -0.52813,-0.52813 -0.52762,-0.5271 v -10e-4 l -0.52813,-0.52762 -0.52917,-0.52813 -0.5271,-0.52658 v -0.002 h -0.001 l -0.52762,-0.5271 v -0.001 l -0.52813,-0.52761 v -0.001 l -0.52814,-0.52813 -0.52813,-0.52813 -0.52761,-0.5271 v -0.001 l -0.52814,-0.52761 -0.52813,-0.52814 -0.52865,-0.52813 -0.5271,-0.52658 v -0.002 h -0.001 l -0.52814,-0.52762 -0.52813,-0.52762 v -5.1e-4 -10e-4 l -0.52762,-0.5271 v -0.001 l -0.52813,-0.52762 -0.52813,-0.52813 -0.52814,-0.52813 -0.52761,-0.5271 v -0.001 l -1.05627,-1.05524 v -5.1e-4 h -5.2e-4 -5.1e-4 l -0.52814,-0.52814 -0.52761,-0.5271 v -0.001 -0.001 l -0.52813,-0.52762 -0.52814,-0.52813 -0.52813,-0.52814 -0.52762,-0.5271 v -10e-4 l -0.52813,-0.52762 -0.52917,-0.52813 -0.5271,-0.52658 v -0.002 h -5.1e-4 l -0.52814,-0.52814 -0.52813,-0.52761 -0.52813,-0.52813 v -0.001 l -0.52762,-0.5271 v -0.001 l -0.52813,-0.52762 -0.007,-0.007 -0.52142,-0.52141 -0.52813,-0.52762 v -5.1e-4 l -0.52762,-0.5271 v -0.001 h -0.001 l -0.5271,-0.52658 v -0.001 h -0.001 l -0.52814,-0.52814 -0.52813,-0.52813 -0.52761,-0.5271 v -0.001 -0.001 l -0.52814,-0.52761 -0.52813,-0.52814 -0.52813,-0.52813 -0.52762,-0.5271 v -0.001 l -1.05627,-1.05524 v -5.1e-4 h -5.1e-4 -5.2e-4 l -0.52762,-0.5271 v -0.001 l -0.52813,-0.52761 v -5.2e-4 l -0.52813,-0.52761 v -0.001 l -0.52814,-0.52813 -0.52761,-0.5271 v -0.001 l -0.52814,-0.52762 -0.52813,-0.52813 -0.52917,-0.52814 -0.52658,-0.52606 v -0.002 h -0.001 l -0.52813,-0.52762 -0.52814,-0.52761 v -5.2e-4 l -0.52813,-0.52813 v -0.001 l -0.52762,-0.5271 v -0.001 l -0.52813,-0.52762 -0.0119,-0.0119 -0.51624,-0.51625 -0.52762,-0.5271 v -0.001 l -0.52813,-0.52762 v -5.2e-4 h -5.2e-4 -5.2e-4 l -0.5271,-0.52658 v -0.001 h -0.001 l -0.52813,-0.52762 v -5.1e-4 l -0.52762,-0.5271 v -10e-4 l -0.52813,-0.52813 v -5.2e-4 l -0.52814,-0.52813 -0.52813,-0.52813 -0.52762,-0.5271 v -0.001 l -0.52813,-0.52761 -0.52917,-0.52814 -0.52709,-0.52658 v -0.002 h -0.001 l -0.52761,-0.5271 v -0.001 l -0.52814,-0.52762 -0.52813,-0.5271 v -10e-4 -0.001 l -0.52762,-0.5271 v -10e-4 l -0.52813,-0.52813 -0.52813,-0.52762 -0.52814,-0.52813 -0.52761,-0.5271 v -0.001 h -0.001 l -0.5271,-0.52658 v -0.002 h -0.001 l -0.52813,-0.52761 -0.52814,-0.52762 v -5.2e-4 l -0.52761,-0.5271 v -0.001 -10e-4 l -0.52814,-0.52762 -0.52813,-0.52813 -0.52813,-0.52814 -0.52762,-0.5271 v -0.001 l -0.52813,-0.52762 -0.52917,-0.52813 -0.52761,-0.5271 v -10e-4 l -0.52814,-0.52814 -0.52813,-0.52761 v -0.001 l -0.52813,-0.52813 -0.52762,-0.5271 v -0.001 l -0.52813,-0.52762 v -5.2e-4 l -0.52814,-0.52761 -0.52813,-0.52813 -0.52762,-0.5271 v -10e-4 h -0.001 l -0.52813,-0.52761 -0.0388,-0.0388 -0.48938,-0.48938 -0.52813,-0.5271 v -0.001 l -0.52762,-0.5271 v -0.001 -0.001 l -0.52813,-0.52761 -0.52813,-0.52814 -0.52813,-0.52813 -0.52762,-0.5271 v -0.001 l -1.0573,-1.05575 -0.52762,-0.5271 v -0.001 l -0.52813,-0.52813 -0.52813,-0.528132 -0.52814,-0.528133 -0.52761,-0.5271 v -0.001 l -0.52814,-0.528133 -0.52813,-0.528134 -0.52917,-0.528133 -0.52761,-0.527099 v -0.001 l -0.52814,-0.528133 -0.52813,-0.528133 -0.52813,-0.528133 -0.52762,-0.5271 v -0.001 l -0.52813,-0.528133 -0.52813,-0.528134 -0.52814,-0.528133 -0.52761,-0.527099 v -0.001 h -0.001 l -0.52813,-0.528133 -0.52813,-0.528133 -0.52762,-0.527617 v -5.16e-4 l -0.52813,-0.527617 v -5.16e-4 l -0.52814,-0.528134 -0.52813,-0.527616 v -5.17e-4 l -0.52762,-0.527616 v -5.17e-4 l -0.52813,-0.527616 -0.52917,-0.528133 -0.52813,-0.528134 -0.52762,-0.527099 v -0.001 l -0.52813,-0.528133 -0.52813,-0.528133 -0.52813,-0.528133 -0.52762,-0.5271 v -0.001 l -0.52813,-0.528133 -0.52814,-0.528133 -0.52865,-0.528134 -0.52813,-0.528133 -0.52813,-0.528133 -0.52814,-0.528133 -0.52761,-0.5271 v -0.001 l -0.52814,-0.528133 -0.52813,-0.528133 -0.52813,-0.528134 -0.52762,-0.527099 v -0.001 l -1.0573,-1.056266 -0.52813,-0.528133 -0.52762,-0.526583 v -0.001 l -0.52813,-0.528133 -0.52813,-0.528133 -0.52814,-0.528133 -0.52761,-0.5271 v -0.001 l -0.52814,-0.528133 -0.52916,-0.528133 -0.52762,-0.5271 v -0.001 l -0.52813,-0.528134 -0.52814,-0.528133 -0.52813,-0.528133 -0.52762,-0.527099 v -0.001 l -0.52813,-0.528133 -0.52813,-0.528133 -0.52814,-0.528133 -0.52865,-0.528134 -0.52813,-0.528133 -0.52813,-0.528133 -0.52813,-0.528133 -0.52762,-0.527616 v -5.17e-4 l -0.52813,-0.527617 v -5.16e-4 l -0.52814,-0.527617 -0.52761,-0.527099 v -0.001 l -0.52814,-0.528133 -0.52916,-0.528133 -0.52814,-0.528133 -0.52761,-0.5271 v -0.001 l -0.52814,-0.528133 -0.52813,-0.528134 -0.52813,-0.528133 -0.52762,-0.527099 v -0.001 l -0.52813,-0.528133 -0.52813,-0.528133 -0.52917,-0.528133 -0.52762,-0.5271 v -0.001 l -0.52813,-0.528134 -0.52813,-0.528133 -0.52814,-0.528133 -0.52761,-0.527099 v -0.001 l -0.52814,-0.528133 -0.52813,-0.527616 v -5.17e-4 l -0.52762,-0.5271 v -10e-4 l -0.52916,-0.528134 -0.52814,-0.527616 -0.52813,-0.528133 -0.52762,-0.5271 v -10e-4 l -0.52813,-0.528133 -0.52813,-0.528133 -0.52814,-0.527617 v -5.17e-4 l -0.52761,-0.527099 v -10e-4 l -0.52813,-0.528133 -0.52917,-0.528133 -0.52813,-0.528133 -0.52762,-0.5271 v -10e-4 l -0.52813,-0.528133 -0.52814,-0.528134 -0.52761,-0.527099 v -0.001 l -0.52814,-0.528133 -0.52813,-0.528133 -0.52812,-0.528133 -0.52865,-0.528133 -0.52814,-0.528133 -0.52813,-0.528134 -0.52813,-0.528133 -0.52762,-0.527099 v -0.001 l -0.52813,-0.527616 -0.52813,-0.527617 v -5.16e-4 l -0.52814,-0.528133 -0.52761,-0.5271 v -10e-4 l -0.52917,-0.528133 -0.52813,-0.528133 -0.52762,-0.527099 v -10e-4 l -0.52813,-0.528133 -0.52814,-0.527617 v -5.16e-4 l -9.06973,-9.060946 -0.98702,-0.985986 -0.47645,-0.476457 -0.0522,-0.05168 -0.52865,-0.528134 z"
       inkscape:label="Shadow" />
    <path
       style="display:inline;fill:#ffffff;fill-opacity:1;stroke:none;stroke-width:0.1;stroke-linecap:round;stroke-linejoin:round;paint-order:stroke fill markers"
       d="M 52.916666,38.149999 V 208.125 l 30,30 h 90.649994 l 11.64167,-11.64167 0,-29.63333 -11.64167,-11.64167 -57.73333,0 -10,-10 V 38.099999 l -11.641662,-11.630667 -29.63334,0.028 z"
       id="path1-7-1"
       sodipodi:nodetypes="ccccccc"
       inkscape:label="L"
       inkscape:original-d="M 52.916666,26.508332 V 238.125 H 185.20833 v -52.91667 h -79.375 V 26.458332 Z"
       inkscape:path-effect="#path-effect7-0"
       transform="translate(13.229169,-0.00549933)" />
  </g>
</svg>
