<?xml version="1.0" encoding="UTF-8" standalone="no"?>
<!-- Created with Inkscape (http://www.inkscape.org/) -->

<svg
   width="1000"
   height="1000"
   viewBox="0 0 264.58333 264.58333"
   version="1.1"
   id="svg1"
   inkscape:version="1.3.2 (091e20e, 2023-11-25, custom)"
   sodipodi:docname="icon.svg"
   inkscape:export-filename="icon.png"
   inkscape:export-xdpi="96"
   inkscape:export-ydpi="96"
   xmlns:inkscape="http://www.inkscape.org/namespaces/inkscape"
   xmlns:sodipodi="http://sodipodi.sourceforge.net/DTD/sodipodi-0.dtd"
   xmlns:xlink="http://www.w3.org/1999/xlink"
   xmlns="http://www.w3.org/2000/svg"
   xmlns:svg="http://www.w3.org/2000/svg">
  <sodipodi:namedview
     id="namedview1"
     pagecolor="#ffffff"
     bordercolor="#000000"
     borderopacity="0.25"
     inkscape:showpageshadow="2"
     inkscape:pageopacity="0.0"
     inkscape:pagecheckerboard="0"
     inkscape:deskcolor="#d1d1d1"
     inkscape:document-units="px"
     showguides="true"
     showgrid="false"
     inkscape:lockguides="true"
     inkscape:zoom="0.35355339"
     inkscape:cx="179.60512"
     inkscape:cy="369.10974"
     inkscape:window-width="1920"
     inkscape:window-height="1009"
     inkscape:window-x="1912"
     inkscape:window-y="-8"
     inkscape:window-maximized="1"
     inkscape:current-layer="layer1">
    <inkscape:grid
       id="grid5"
       units="px"
       originx="0"
       originy="0"
       spacingx="1.3229167"
       spacingy="1.3229167"
       empcolor="#0099e5"
       empopacity="0.30196078"
       color="#0015e5"
       opacity="0.14901961"
       empspacing="5"
       dotted="true"
       gridanglex="30"
       gridanglez="30"
       visible="false"
       snapvisiblegridlinesonly="false" />
  </sodipodi:namedview>
  <defs
     id="defs1">
    <inkscape:path-effect
       effect="fillet_chamfer"
       id="path-effect11745"
       is_visible="true"
       lpeversion="1"
       nodesatellites_param="C,0,1,1,0,11.641667,0,1 @ C,0,1,1,0,30,0,1 @ C,0,1,1,0,11.641667,0,1 @ C,0,0,1,0,11.641667,0,1 @ C,0,1,1,0,10,0,1 @ C,0,1,1,0,11.641667,0,1"
       radius="0"
       unit="px"
       method="auto"
       mode="F"
       chamfer_steps="1"
       flexible="false"
       use_knot_distance="true"
       apply_no_radius="true"
       apply_with_radius="true"
       only_selected="false"
       hide_knots="false" />
    <inkscape:path-effect
       effect="fillet_chamfer"
       id="path-effect7"
       is_visible="true"
       lpeversion="1"
       nodesatellites_param="C,0,1,1,0,11.641667,0,1 @ C,0,1,1,0,30,0,1 @ C,0,1,1,0,11.641667,0,1 @ C,0,0,1,0,11.641667,0,1 @ C,0,1,1,0,10,0,1 @ C,0,1,1,0,11.641667,0,1"
       radius="0"
       unit="px"
       method="auto"
       mode="F"
       chamfer_steps="1"
       flexible="false"
       use_knot_distance="true"
       apply_no_radius="true"
       apply_with_radius="true"
       only_selected="false"
       hide_knots="false" />
    <linearGradient
       id="linearGradient3"
       inkscape:collect="always">
      <stop
         style="stop-color:#ffbe0b;stop-opacity:1;"
         offset="0"
         id="stop3" />
      <stop
         style="stop-color:#fb5607;stop-opacity:1;"
         offset="0.5"
         id="stop5" />
      <stop
         style="stop-color:#ff006e;stop-opacity:1;"
         offset="1"
         id="stop6" />
    </linearGradient>
    <linearGradient
       inkscape:collect="always"
       xlink:href="#linearGradient3"
       id="linearGradient4"
       x1="0.042242277"
       y1="0.04821657"
       x2="264.57199"
       y2="264.56662"
       gradientUnits="userSpaceOnUse"
       spreadMethod="pad"
       gradientTransform="translate(2.3266428e-6)" />
    <inkscape:path-effect
       effect="fillet_chamfer"
       id="path-effect7-4"
       is_visible="true"
       lpeversion="1"
       nodesatellites_param="C,0,1,1,0,11.641667,0,1 @ C,0,1,1,0,30,0,1 @ C,0,1,1,0,11.641667,0,1 @ C,0,0,1,0,11.641667,0,1 @ C,0,1,1,0,10,0,1 @ C,0,1,1,0,11.641667,0,1"
       radius="0"
       unit="px"
       method="auto"
       mode="F"
       chamfer_steps="1"
       flexible="false"
       use_knot_distance="true"
       apply_no_radius="true"
       apply_with_radius="true"
       only_selected="false"
       hide_knots="false" />
    <inkscape:path-effect
       effect="fillet_chamfer"
       id="path-effect7-0"
       is_visible="true"
       lpeversion="1"
       nodesatellites_param="C,0,1,1,0,11.641667,0,1 @ C,0,1,1,0,30,0,1 @ C,0,1,1,0,11.641667,0,1 @ C,0,0,1,0,11.641667,0,1 @ C,0,1,1,0,10,0,1 @ C,0,1,1,0,11.641667,0,1"
       radius="0"
       unit="px"
       method="auto"
       mode="F"
       chamfer_steps="1"
       flexible="false"
       use_knot_distance="true"
       apply_no_radius="true"
       apply_with_radius="true"
       only_selected="false"
       hide_knots="false" />
  </defs>
  <g
     inkscape:label="Ebene 1"
     inkscape:groupmode="layer"
     id="layer1">
    <rect
       style="display:inline;fill:url(#linearGradient4);stroke:none;stroke-width:0.086441;stroke-linecap:round;stroke-linejoin:round;paint-order:stroke fill markers"
       id="rect2"
       width="264.49689"
       height="264.49689"
       x="0.043223064"
       y="0.043223064"
       inkscape:label="Background" />
    <path
       id="rect11744"
       style="fill:#000000;fill-opacity:0.1"
       inkscape:label="Barcode"
       d="M 1.0726299e-06 30 L 1.000003 30 L 1.000003 0 L 1.0726299e-06 0 L 1.0726299e-06 30 z M 3.0000069 30 L 4.0000088 30 L 4.0000088 0 L 3.0000069 0 L 3.0000069 30 z M 5.0000108 30 L 7.0000146 30 L 7.0000146 0 L 5.0000108 0 L 5.0000108 30 z M 8.0000166 30 L 10.00002 30 L 10.00002 0 L 8.0000166 0 L 8.0000166 30 z M 11.000022 30 L 12.000024 30 L 12.000024 0 L 11.000022 0 L 11.000022 30 z M 13.000026 30 L 14.000028 30 L 14.000028 0 L 13.000026 0 L 13.000026 30 z M 15.00003 30 L 17.000034 30 L 17.000034 0 L 15.00003 0 L 15.00003 30 z M 18.000036 30 L 19.000038 30 L 19.000038 0 L 18.000036 0 L 18.000036 30 z M 20.00004 30 L 21.000042 30 L 21.000042 21.560215 L 20.00004 21.327891 L 20.00004 30 z M 20.00004 17.668828 L 21.000042 17.436094 L 21.000042 0 L 20.00004 0 L 20.00004 17.668828 z M 23.000046 30 L 25.000049 30 L 25.000049 22.489453 L 23.000046 22.024864 L 23.000046 30 z M 23.000046 16.970508 L 25.000049 16.504922 L 25.000049 0 L 23.000046 0 L 23.000046 16.970508 z M 26.000051 30 L 28.000055 30 L 28.000055 22.5 L 26.000051 22.5 L 26.000051 30 z M 26.000051 16.272305 L 26.307938 16.200586 L 26.308946 16.200586 L 26.565938 16.140762 L 26.823434 16.080879 L 27.080678 16.020996 L 27.08093 16.020996 L 27.338174 15.961114 L 27.338678 15.961114 L 27.595671 15.901289 L 27.853167 15.841406 L 28.000055 15.807246 L 28.000055 0 L 26.000051 0 L 26.000051 16.272305 z M 29.000057 30 L 30.000059 30 L 30.000059 22.5 L 29.000057 22.5 L 29.000057 30 z M 29.000057 15.574629 L 29.140647 15.541934 L 29.398143 15.482051 L 29.398395 15.482051 L 29.655387 15.422227 L 29.912883 15.362344 L 30.000059 15.342071 L 30.000059 0 L 29.000057 0 L 29.000057 15.574629 z M 31.000061 30 L 33.000065 30 L 33.000065 22.5 L 31.000061 22.5 L 31.000061 30 z M 31.000061 15.109453 L 31.200364 15.062871 L 31.200868 15.062871 L 31.45786 15.003047 L 31.715104 14.943164 L 31.715356 14.943164 L 31.9726 14.883281 L 31.972852 14.883281 L 32.230096 14.823399 L 32.230348 14.823399 L 32.487592 14.763574 L 32.745088 14.703692 L 33.000065 14.644395 L 33.000065 0 L 31.000061 0 L 31.000061 15.109453 z M 34.000067 30 L 35.000069 30 L 35.000069 22.5 L 34.000067 22.5 L 34.000067 30 z M 34.000067 14.411778 L 34.032569 14.404219 L 34.290065 14.344336 L 34.290569 14.344336 L 34.547561 14.284512 L 34.805057 14.224629 L 35.000069 14.179278 L 35.000069 0 L 34.000067 0 L 34.000067 14.411778 z M 37.000073 30 L 38.000075 30 L 38.000075 22.5 L 37.000073 22.5 L 37.000073 30 z M 37.000073 13.71416 L 37.122522 13.685684 L 37.379766 13.62586 L 37.637262 13.565977 L 37.894758 13.505977 L 37.89501 13.505977 L 38.000075 13.481543 L 38.000075 0 L 37.000073 0 L 37.000073 13.71416 z M 39.000077 30 L 41.00008 30 L 41.00008 22.5 L 39.000077 22.5 L 39.000077 30 z M 39.000077 13.248985 L 39.182239 13.206621 L 39.182743 13.206621 L 39.439735 13.146797 L 39.697231 13.086914 L 39.697483 13.086914 L 39.954727 13.027031 L 40.212223 12.96709 L 40.469719 12.907207 L 40.727215 12.847324 L 40.984711 12.787442 L 40.985215 12.787442 L 41.00008 12.783985 L 41.00008 0 L 39.000077 0 L 39.000077 13.248985 z M 42.000082 30 L 43.000084 30 L 43.000084 22.5 L 42.000082 22.5 L 42.000082 30 z M 42.000082 12.551367 L 42.014696 12.547969 L 42.014948 12.547969 L 42.271688 12.488262 L 42.529688 12.428145 L 42.787184 12.368262 L 43.000084 12.318692 L 43.000084 0 L 42.000082 0 L 42.000082 12.551367 z M 44.000086 30 L 46.00009 30 L 46.00009 22.5 L 44.000086 22.5 L 44.000086 30 z M 44.000086 12.086192 L 44.074412 12.068906 L 44.074916 12.068906 L 44.331909 12.009082 L 44.589405 11.949199 L 44.846901 11.889199 L 44.847405 11.889199 L 45.104397 11.829375 L 45.361893 11.769492 L 45.619389 11.70961 L 45.876885 11.649727 L 45.877389 11.649727 L 46.00009 11.621192 L 46.00009 0 L 44.000086 0 L 44.000086 12.086192 z M 48.000094 30 L 49.000096 30 L 49.000096 22.5 L 48.000094 22.5 L 48.000094 30 z M 48.000094 11.156016 L 48.194098 11.11084 L 48.451342 11.050957 L 48.703547 10.99084 L 48.703799 10.99084 L 48.961043 10.931016 L 48.961295 10.931016 L 49.000096 10.921992 L 49.000096 0 L 48.000094 0 L 48.000094 11.156016 z M 50.000098 30 L 51.0001 30 L 51.0001 22.5 L 50.000098 22.5 L 50.000098 30 z M 50.000098 10.689375 L 50.248524 10.631543 L 50.248776 10.631543 L 50.50602 10.57166 L 50.506272 10.57166 L 50.763516 10.511778 L 51.0001 10.456758 L 51.0001 0 L 50.000098 0 L 50.000098 10.689375 z M 52.000102 30 L 54.000106 30 L 54.000106 22.5 L 52.000102 22.5 L 52.000102 30 z M 52.000102 10.224199 L 52.050996 10.212363 L 52.308492 10.152481 L 52.565988 10.092598 L 52.566492 10.092598 L 52.823485 10.032774 L 53.080729 9.9728908 L 53.338225 9.913008 L 53.595721 9.8531251 L 53.596225 9.8531251 L 53.853217 9.7933009 L 53.853721 9.7931837 L 54.000106 9.7590822 L 54.000106 0 L 52.000102 0 L 52.000102 10.224199 z M 56.00011 30 L 58.000113 30 L 58.000113 22.5 L 56.00011 22.5 L 56.00011 30 z M 56.00011 9.293965 L 56.17043 9.2543556 L 56.170934 9.2542384 L 56.42843 9.1943556 L 56.685926 9.1344728 L 56.94317 9.0746486 L 57.200666 9.0147658 L 57.458162 8.9548829 L 57.458666 8.9548829 L 57.715658 8.8950587 L 57.972902 8.8351759 L 58.000113 8.8288478 L 58.000113 0 L 56.00011 0 L 56.00011 9.293965 z M 59.000115 30 L 60.000117 30 L 60.000117 22.5 L 59.000115 22.5 L 59.000115 30 z M 59.000115 8.5963478 L 59.003139 8.5956447 L 59.260635 8.5357618 L 59.518131 8.475879 L 59.775375 8.4160548 L 60.000117 8.3637892 L 60.000117 0 L 59.000115 0 L 59.000115 8.5963478 z M 61.000119 30 L 62.000121 30 L 62.000121 22.5 L 61.000119 22.5 L 61.000119 30 z M 61.000119 8.1312306 L 61.063107 8.1165822 L 61.320604 8.0566993 L 61.321107 8.0566993 L 61.5781 7.9968751 L 61.835344 7.9369923 L 62.000121 7.898672 L 62.000121 0 L 61.000119 0 L 61.000119 8.1312306 z M 63.000123 30 L 64.000125 30 L 64.000125 22.5 L 63.000123 22.5 L 63.000123 30 z M 63.000123 7.6661134 L 63.122572 7.6376368 L 63.123076 7.6375196 L 63.380068 7.577754 L 63.380572 7.5776368 L 63.637816 7.5178126 L 63.895313 7.4579298 L 64.000125 7.4335548 L 64.000125 0 L 63.000123 0 L 63.000123 7.6661134 z M 64.999875 30 L 66.999879 30 L 66.999879 22.5 L 64.999875 22.5 L 64.999875 30 z M 64.999875 7.2010548 L 65.182541 7.1585743 L 65.440037 7.0986915 L 65.697281 7.0388673 L 65.697533 7.0387501 L 65.955029 6.9788673 L 66.212525 6.9189845 L 66.213029 6.9189845 L 66.470021 6.8591603 L 66.727266 6.7992774 L 66.984762 6.7393946 L 66.999879 6.735879 L 66.999879 0 L 64.999875 0 L 64.999875 7.2010548 z M 67.999881 30 L 68.999883 30 L 68.999883 22.5 L 67.999881 22.5 L 67.999881 30 z M 67.999881 6.5033204 L 68.014494 6.499922 L 68.014998 6.4998048 L 68.272494 6.439922 L 68.529738 6.3800978 L 68.787234 6.3202149 L 68.999883 6.2707618 L 68.999883 0 L 67.999881 0 L 67.999881 6.5033204 z M 69.999885 30 L 71.999889 30 L 71.999889 22.5 L 69.999885 22.5 L 69.999885 30 z M 69.999885 6.0382032 L 70.074463 6.0208595 L 70.074967 6.0207423 L 70.331959 5.9609767 L 70.589707 5.9010352 L 70.847203 5.8411524 L 71.104699 5.7812696 L 71.105203 5.7812696 L 71.362195 5.7214454 L 71.619439 5.6615626 L 71.876935 5.6016798 L 71.999889 5.573086 L 71.999889 0 L 69.999885 0 L 69.999885 6.0382032 z M 73.999892 30 L 74.999894 30 L 74.999894 22.5 L 73.999892 22.5 L 73.999892 30 z M 73.999892 5.1080274 L 74.194652 5.0627345 L 74.451896 5.0029102 L 74.709392 4.9430274 L 74.709392 4.9429102 L 74.7104 4.9429102 L 74.96714 4.8831446 L 74.967644 4.8830274 L 74.968148 4.8830274 L 74.999894 4.8756446 L 74.999894 0 L 73.999892 0 L 73.999892 5.1080274 z M 75.999896 30 L 76.999898 30 L 76.999898 22.5 L 75.999896 22.5 L 75.999896 30 z M 75.999896 4.643086 L 76.254873 4.5837305 L 76.512117 4.5238477 L 76.769613 4.4639649 L 76.999898 4.4104102 L 76.999898 0 L 75.999896 0 L 75.999896 4.643086 z M 77.9999 30 L 79.999904 30 L 79.999904 22.5 L 77.9999 22.5 L 77.9999 30 z M 77.9999 4.1778516 L 78.057345 4.1644923 L 78.31459 4.104668 L 78.572086 4.0447852 L 78.829582 3.9849024 L 79.087078 3.9250196 L 79.344322 3.8651954 L 79.344322 3.8650782 L 79.34533 3.8650782 L 79.60207 3.8053126 L 79.602574 3.8051954 L 79.859566 3.7453126 L 79.86007 3.7453126 L 79.860574 3.7453126 L 79.999904 3.7128516 L 79.999904 0 L 77.9999 0 L 77.9999 4.1778516 z M 80.999906 30 L 81.999908 30 L 81.999908 22.5 L 80.999906 22.5 L 80.999906 30 z M 80.999906 3.4802344 L 81.147047 3.4460157 L 81.404543 3.3861329 L 81.662039 3.3262501 L 81.662039 3.3261915 L 81.663047 3.3261915 L 81.919787 3.2664258 L 81.920291 3.2663086 L 81.999908 3.2477344 L 81.999908 0 L 80.999906 0 L 80.999906 3.4802344 z M 83.999912 30 L 84.999914 30 L 84.999914 22.5 L 83.999912 22.5 L 83.999912 30 z M 83.999912 2.7827344 L 84.237 2.7275391 L 84.237252 2.7274219 L 84.494244 2.6675391 L 84.494748 2.6675391 L 84.752244 2.6076563 L 84.999914 2.5500586 L 84.999914 0 L 83.999912 0 L 83.999912 2.7827344 z M 85.999916 30 L 86.999918 30 L 86.999918 22.5 L 85.999916 22.5 L 85.999916 30 z M 85.999916 2.3175 L 86.03922 2.3083594 L 86.296716 2.2484766 L 86.296716 2.2483594 L 86.297724 2.2483594 L 86.554464 2.1885938 L 86.554968 2.1884766 L 86.811961 2.1285938 L 86.812464 2.1285938 L 86.999918 2.085 L 86.999918 0 L 85.999916 0 L 85.999916 2.3175 z M 87.99992 30 L 89.999923 30 L 89.999923 22.5 L 87.99992 22.5 L 87.99992 30 z M 87.99992 1.8524414 L 88.099441 1.8292969 L 88.356937 1.7694141 L 88.614433 1.7095313 L 88.614433 1.7094141 L 88.614937 1.7094141 L 89.129173 1.5897071 L 89.129425 1.5897071 L 89.129677 1.5897071 L 89.38667 1.5298242 L 89.387173 1.5298242 L 89.64467 1.4699414 L 89.901914 1.4101172 L 89.999923 1.3873242 L 89.999923 0 L 87.99992 0 L 87.99992 1.8524414 z M 90.999925 30 L 92.999929 30 L 92.999929 22.5 L 90.999925 22.5 L 90.999925 30 z M 90.999925 1.1549414 L 91.189646 1.1107617 L 91.19015 1.1106445 L 91.447142 1.0507617 L 91.447646 1.0507617 L 91.704638 0.99093751 L 91.705142 0.99093751 L 91.962386 0.9310547 L 92.219882 0.87117189 L 92.477378 0.81128907 L 92.47763 0.81128907 L 92.734623 0.75146486 L 92.991867 0.69158204 L 92.991867 0.69146485 L 92.992875 0.69146485 L 92.999929 0.68982423 L 92.999929 0 L 90.999925 0 L 90.999925 1.1549414 z M 93.999931 30 L 94.999933 30 L 94.999933 22.5 L 93.999931 22.5 L 93.999931 30 z M 93.999931 0.45714844 L 94.022103 0.45199219 L 94.022607 0.45199219 L 94.280103 0.39210938 L 94.537599 0.33222657 L 94.794843 0.27240235 L 94.999933 0.22470703 L 94.999933 0 L 93.999931 0 L 93.999931 0.45714844 z M 96.999937 30 L 97.999939 30 L 97.999939 21.807188 L 97.85305 21.841348 L 97.852798 21.841348 L 96.999937 22.039746 L 96.999937 30 z M 98.999941 30 L 99.999943 30 L 99.999943 21.342071 L 98.999941 21.574688 L 98.999941 30 z M 100.99994 30 L 102.99995 30 L 102.99995 20.644395 L 102.65427 20.724785 L 101.20075 21.062871 L 101.20025 21.062871 L 100.99994 21.109453 L 100.99994 30 z M 103.99995 30 L 105.99995 30 L 105.99995 19.946778 L 105.83543 19.985039 L 105.83518 19.985039 L 105.51847 20.058692 L 105.16624 20.140606 L 103.99995 20.411895 L 103.99995 30 z M 106.99996 30 L 107.99996 30 L 107.99996 19.481543 L 106.99996 19.71416 L 106.99996 30 z M 109.99996 30 L 110.99996 30 L 110.99996 18.783926 L 110.70039 18.853594 L 110.51017 18.897774 L 110.46985 18.907149 L 110.46935 18.907207 L 110.41972 18.918809 L 110.16222 18.978692 L 109.99996 19.016426 L 109.99996 30 z M 111.99997 30 L 112.99997 30 L 112.99997 18.318867 L 112.78732 18.368321 L 112.78682 18.368321 L 111.99997 18.551367 L 111.99997 30 z M 113.99997 30 L 115.99997 30 L 115.99997 17.621133 L 115.99468 17.622364 L 115.82713 17.661328 L 115.45122 17.74875 L 115.10453 17.829375 L 115.10428 17.829375 L 113.99997 18.08625 L 113.99997 30 z M 116.99998 30 L 117.99998 30 L 117.99998 17.156074 L 117.96269 17.164746 L 117.422 17.290489 L 116.99998 17.388633 L 116.99998 30 z M 119.99998 30 L 120.99998 30 L 120.99998 16.45834 L 120.46181 16.583496 L 120.3764 16.60336 L 119.99998 16.690899 L 119.99998 30 z M 121.99999 30 L 123.99999 30 L 123.99999 15.760664 L 123.80926 15.80502 L 123.80473 15.806016 L 123.78784 15.809942 L 123.62105 15.848731 L 123.61929 15.849199 L 123.61475 15.850196 L 123.6145 15.850254 L 123.61425 15.850313 L 123.614 15.850371 L 123.61375 15.85043 L 123.60442 15.852598 L 123.3439 15.913184 L 123.34365 15.913184 L 123.03677 15.98461 L 122.77928 16.044492 L 122.77928 16.044551 L 122.77928 16.04461 L 122.31417 16.152774 L 122.31392 16.152774 L 121.99999 16.225781 L 121.99999 30 z M 124.99999 30 L 127 30 L 127 15.063047 L 126.6916 15.134766 L 126.69135 15.134766 L 126.17636 15.254531 L 126.17611 15.254531 L 124.99999 15.528164 L 124.99999 30 z M 128 30 L 129 30 L 129 14.597871 L 128.99622 14.59875 L 128.94684 14.610235 L 128.23633 14.775469 L 128.23608 14.775469 L 128 14.830371 L 128 30 z "
       transform="matrix(0,2.0510336,-8.8194442,0,264.58333,-2.2e-6)" />
    <path
       id="path11805"
       style="display:inline;fill:#000000;fill-opacity:0.2;stroke:none;stroke-width:0.1;stroke-linecap:round;stroke-linejoin:round;paint-order:stroke fill markers"
       d="m 107.4198,39.687499 -29.632818,0.02791 -11.64115,11.653552 V 194.89094 l 3.168799,3.16829 v 5.1e-4 l 2.640149,2.63964 v 5.1e-4 l 2.112532,2.11202 v 10e-4 l 4.753198,4.75217 v 0.001 l 2.98173,2.98121 1.770952,1.77044 v 10e-4 h 5.17e-4 l 0.527616,0.52762 v 5.1e-4 l 2.853056,2.85254 0.722436,0.72244 0.649573,0.64957 v 5.2e-4 l 1.269173,1.26917 3.484025,3.48299 v 5.2e-4 l 3.566191,3.56619 0.0186,0.0186 0.0093,0.009 0.528133,0.52813 0.528133,0.52813 0.10232,0.10181 5.16e-4,0.001 0.08268,0.0827 0.38964,0.39016 0.979785,0.97978 0.02946,0.0295 0.528133,0.52813 2.742471,2.74195 v 0.001 l 1.48208,1.48156 3.27112,3.2706 v 5.2e-4 l 0.71106,0.71107 0.77102,0.77101 0.34365,0.34365 1.04696,1.04696 1.87999,1.88051 1.10897,1.10897 0.37311,0.37311 h 5.2e-4 l 3.2706,3.27008 v 5.2e-4 l 1.30689,1.3069 0.17519,0.17518 1.21284,1.21284 2.58589,2.58589 v 5.2e-4 l 0.95395,0.95395 h 5.2e-4 5.1e-4 l 0.52813,0.52813 0.62994,0.62942 v 5.2e-4 l 0.53433,0.53433 0.0191,0.0191 5.1e-4,5.2e-4 5.2e-4,5.1e-4 5.2e-4,5.2e-4 5.1e-4,5.2e-4 0.009,0.009 0.004,0.004 0.3421,0.3421 0.0346,0.0346 0.009,0.009 0.52813,0.52814 0.25166,0.25166 0.37828,0.37827 v 0.001 l 3.69693,3.69539 v 5.1e-4 l 1.05626,1.05627 v 5.2e-4 l 3.1688,3.16776 v 5.2e-4 l 1.45728,1.45727 0.10128,0.10129 0.0253,0.0253 v 10e-4 l 3.15743,3.15692 0.18293,0.18293 0.27595,0.27595 1.13688,1.13637 v 0.001 l 2.01022,2.0097 1.98179,1.98179 1.28881,1.28881 v 5.2e-4 l 0.015,0.0145 1.4671,1.46761 2.74298,2.74195 0.37466,0.37465 0.15348,0.15348 0.001,10e-4 0.42478,0.42479 0.52813,0.52813 0.16899,0.16898 0.009,0.009 0.0258,0.0258 0.1049,0.10542 0.0207,0.0207 0.0253,0.0253 0.17364,0.17363 9.50588,9.50639 9.50588,9.50588 h 5.1e-4 5.2e-4 l 0.52813,0.52814 1.54823,1.54822 0.0357,0.0357 0.52813,0.52813 0.62993,0.62994 0.001,10e-4 0.5271,0.5271 v 5.2e-4 l 0.95394,0.95395 h 5.2e-4 5.2e-4 l 0.1018,0.1018 v 5.1e-4 l 0.42633,0.42582 0.0269,0.0269 0.0336,0.0336 0.0413,0.0413 v 5.2e-4 l 0.005,0.004 0.046,0.046 0.25166,0.25167 0.008,0.008 0.0274,0.0274 v 5.2e-4 l 5.2e-4,5.1e-4 5.1e-4,5.2e-4 5.2e-4,5.2e-4 0.006,0.006 0.0388,0.0388 0.0331,0.0331 0.009,0.009 0.52813,0.52814 0.52245,0.52244 5.2e-4,5.2e-4 5.1e-4,5.2e-4 h 5.2e-4 l 0.004,0.004 0.10181,0.1018 v 5.2e-4 l 0.42633,0.42581 0.0269,0.0269 0.0336,0.0336 0.0413,0.0413 v 5.1e-4 l 0.009,0.009 0.0605,0.0605 0.007,0.007 0.002,0.002 v 5.2e-4 l 5.2e-4,5.2e-4 0.0289,0.0289 0.12402,0.12403 0.0455,0.0455 0.0517,0.0517 0.0538,0.0537 0.0331,0.0331 0.009,0.009 0.10232,0.1018 0.001,0.001 0.42478,0.4253 0.10232,0.10232 v 5.2e-4 l 0.13539,0.13487 1.33067,1.33067 5.1e-4,5.2e-4 0.002,0.002 0.003,0.003 0.003,0.003 0.004,0.004 0.004,0.004 0.52814,0.52813 0.0315,0.0315 0.002,0.002 1.44487,1.44488 0.001,10e-4 0.0439,0.0439 0.0341,0.0341 0.0269,0.0269 0.52813,0.52814 0.1018,0.1018 10e-4,10e-4 0.39222,0.39223 0.10232,0.10232 5.2e-4,5.1e-4 5.1e-4,5.2e-4 5.2e-4,5.2e-4 0.001,10e-4 0.0227,0.0227 0.006,0.006 0.002,0.002 v 10e-4 h 0.001 l 0.004,0.004 0.34003,0.34003 0.0388,0.0388 0.0331,0.0331 0.009,0.009 0.52813,0.52813 0.20619,0.20619 5.2e-4,5.1e-4 0.002,0.002 1.27951,1.27951 5.2e-4,5.2e-4 0.002,0.002 10e-4,10e-4 0.006,0.006 0.007,0.007 0.0388,0.0388 0.0331,0.0331 0.009,0.009 0.52813,0.52814 0.45889,0.45888 5.2e-4,5.2e-4 0.69866,0.69867 0.001,5.1e-4 0.37207,0.37259 0.003,0.003 0.001,0.001 0.007,0.007 0.0331,0.0331 0.009,0.009 0.10232,0.10232 v 5.2e-4 l 0.42581,0.42529 0.11524,0.11524 10e-4,10e-4 1.36271,1.3627 0.001,10e-4 0.0439,0.0439 0.0341,0.0341 0.0269,0.0269 0.52813,0.52813 0.46302,0.46302 0.13487,0.13488 5.2e-4,5.2e-4 5.2e-4,5.1e-4 0.001,10e-4 0.0227,0.0227 0.006,0.006 0.006,0.006 0.34004,0.34003 0.0387,0.0388 0.0331,0.0331 0.009,0.009 0.52813,0.52814 0.10077,0.10076 0.002,10e-4 10e-4,0.001 0.52659,0.5271 v 0.001 h 0.001 l 0.49558,0.49558 10e-4,0.001 0.002,0.002 0.0274,0.0274 0.006,0.006 1.55908,1.55907 0.25425,0.25425 1.87895,1.87896 0.001,0.001 0.52709,0.5271 v 5.2e-4 l 3.84576,3.84627 2.38901,2.389 4.75319,4.7532 2.74299,2.74195 0.001,10e-4 6.76186,6.76289 h 5.2e-4 5.2e-4 l 0.62993,0.62942 v 5.2e-4 l 0.83406,0.83406 0.0388,0.0387 0.0388,0.0388 0.0331,0.0331 0.009,0.009 0.52813,0.52814 0.62994,0.62942 v 5.1e-4 l 10e-4,10e-4 0.5271,0.5271 0.001,10e-4 0.37155,0.37155 0.0439,0.0439 0.009,0.009 0.52813,0.52813 0.3545,0.35502 0.17363,0.17363 h 5.2e-4 l 1.01389,1.0139 0.0331,0.0331 0.009,0.009 0.52813,0.52813 1.15807,1.15755 0.001,0.001 0.42478,0.4253 0.10232,0.1018 10e-4,0.001 0.42478,0.4253 1.05627,1.05678 h 5.2e-4 l 0.52813,0.52813 h 5.2e-4 l 0.52761,0.52762 0.10181,0.1018 v 5.2e-4 l 0.42633,0.42581 0.0269,0.0269 0.0336,0.0336 0.006,0.006 0.002,0.002 10e-4,10e-4 0.002,0.002 5.2e-4,5.1e-4 v 5.2e-4 l 0.001,10e-4 0.0274,0.0274 0.006,0.006 0.34003,0.34004 0.0388,0.0387 0.0331,0.0331 0.009,0.009 0.52814,0.52813 0.10232,0.1018 5.1e-4,10e-4 0.40825,0.40824 0.002,0.002 0.001,0.001 0.001,5.2e-4 0.0134,0.0134 0.1018,0.1018 v 5.2e-4 l 0.001,10e-4 0.42529,0.42478 0.0269,0.0269 0.0336,0.0336 0.0506,0.0506 0.0506,0.0507 0.0517,0.0517 0.18086,0.18087 0.0351,0.0351 0.002,0.002 v 5.2e-4 l 5.2e-4,5.1e-4 5.1e-4,5.2e-4 5.2e-4,5.2e-4 0.006,0.006 0.0465,0.0465 0.0331,0.0331 0.009,0.009 0.52813,0.52814 0.42013,0.42013 0.002,0.002 0.001,0.001 0.002,0.002 0.001,5.1e-4 0.10335,0.10336 0.1018,0.1018 v 5.2e-4 l 0.42633,0.42581 0.0274,0.0274 0.0341,0.0341 0.0517,0.0517 0.28474,0.28474 0.008,0.008 0.007,0.007 v 5.2e-4 l 5.1e-4,5.2e-4 5.2e-4,5.1e-4 0.004,0.004 0.016,0.016 0.006,0.006 0.007,0.007 0.0481,0.0481 0.0336,0.0336 0.52813,0.52814 0.11731,0.1173 0.001,10e-4 0.001,5.2e-4 0.40876,0.40876 0.10181,0.1018 v 5.2e-4 0.001 l 3.69693,3.69539 v 5.1e-4 l 1.05627,1.05627 v 5.2e-4 l 1.05574,1.05523 v 0.001 h 0.001 l 1.58388,1.58337 v 5.2e-4 l 2.11202,2.11201 v 10e-4 l 4.22506,4.22352 v 5.2e-4 l 0.52813,0.52813 v 5.2e-4 l 1.05575,1.05575 v 5.1e-4 l 2.11305,2.1115 v 5.2e-4 l 0.58136,0.58136 0.85525,0.85524 0.14779,0.1478 v 5.1e-4 l 0.52762,0.5271 0.001,0.001 0.49248,0.49247 5.2e-4,5.2e-4 0.004,0.004 0.002,0.002 0.0274,0.0274 0.002,0.002 10e-4,10e-4 0.004,0.004 0.34003,0.34003 0.0388,0.0388 0.0331,0.0331 0.009,0.009 0.52813,0.52813 0.63097,0.63046 v 5.1e-4 l 1.25832,1.25832 0.078,0.078 0.38602,0.38602 0.36329,0.36328 0.0263,0.0264 v 10e-4 l 0.55139,0.55087 0.0455,0.0455 1.29604,1.29604 2.84221,2.84221 2.55591,2.55643 2.21485,2.21434 v 5.1e-4 l 0.49403,0.49351 0.0341,0.0336 0.001,0.001 2.00918,2.0097 2.21485,2.21485 v 5.2e-4 l 1.42265,1.42265 0.18087,0.18087 0.93431,0.93431 4.7532,4.7532 h 5.2e-4 l 2.21433,2.2133 v 5.2e-4 l 0.52813,0.52813 10e-4,0.001 0.37982,0.37982 0.045,0.045 0.10232,0.10181 10e-4,0.001 0.42478,0.4253 1.13585,1.13584 5.2e-4,5.2e-4 0.0951,0.0951 0.0207,0.0207 0.25167,0.25166 0.0387,0.0388 0.0331,0.0331 0.009,0.009 0.52813,0.52814 1.50223,1.50223 0.0408,0.0408 0.0315,0.0315 0.009,0.009 0.10232,0.1018 10e-4,0.001 0.42478,0.4253 0.1018,0.1018 10e-4,0.001 1.42214,1.42213 0.0331,0.0331 0.0258,0.0258 0.63097,0.63046 v 5.1e-4 l 0.9002,0.90021 0.0444,0.0444 0.009,0.009 0.52813,0.52813 0.62993,0.62994 0.001,10e-4 0.44493,0.44494 0.0145,0.0145 0.0677,0.0677 10e-4,10e-4 0.42478,0.42478 0.52813,0.52813 1.54255,1.54254 0.0331,0.0331 0.009,0.009 0.52813,0.52813 1.15807,1.15755 10e-4,0.001 0.5271,0.5271 10e-4,0.001 0.42478,0.42529 h 5.2e-4 l 0.10128,0.10129 v 0.002 h 10e-4 l 1.34255,1.34255 10e-4,10e-4 0.002,0.002 0.01,0.01 0.005,0.005 0.0315,0.0315 0.0315,0.0315 0.0331,0.0331 0.0258,0.0258 0.27491,0.27492 0.001,0.001 0.0109,0.0109 1.03146,1.03147 0.002,0.002 0.005,0.005 0.01,0.01 0.10335,0.10336 0.0382,0.0382 0.0367,0.0367 0.0331,0.0331 0.0284,0.0284 0.009,0.009 0.52813,0.52814 0.10232,0.1018 5.2e-4,0.001 0.41961,0.41961 5.2e-4,5.2e-4 5.1e-4,5.2e-4 0.10646,0.10645 10e-4,0.001 0.5271,0.52709 v 5.2e-4 l 0.0791,0.0786 5.1e-4,5.2e-4 0.0289,0.0289 0.12402,0.12402 0.0455,0.0455 0.0517,0.0517 0.0537,0.0537 0.0331,0.0331 0.009,0.009 0.52814,0.52813 0.26871,0.26872 10e-4,0.001 0.003,0.003 1.10381,1.1038 5.2e-4,5.2e-4 5.1e-4,5.2e-4 0.0274,0.0274 0.0408,0.0408 0.0522,0.0522 0.0517,0.0517 0.0357,0.0357 0.52814,0.52813 0.11627,0.11627 10e-4,10e-4 0.001,0.001 0.51159,0.5116 0.001,10e-4 0.5271,0.52658 10e-4,10e-4 0.31884,0.31936 10e-4,0.001 0.0439,0.0439 0.0341,0.0341 0.0269,0.0269 0.10232,0.10181 10e-4,10e-4 0.42478,0.4253 0.0522,0.0522 0.60668,0.60668 0.003,0.003 0.005,0.005 0.007,0.007 0.007,0.007 0.29455,0.29456 0.0388,0.0388 0.0331,0.0331 0.009,0.009 0.52813,0.52813 0.52245,0.52245 5.1e-4,5.2e-4 0.71417,0.71417 5.2e-4,5.1e-4 0.0289,0.0289 0.12402,0.12403 0.0455,0.0455 0.0517,0.0517 0.0537,0.0537 0.0331,0.0331 0.009,0.009 0.10232,0.1018 0.001,10e-4 0.42478,0.4253 0.10232,0.1018 5.2e-4,10e-4 0.13488,0.13488 5.1e-4,5.2e-4 0.39171,0.3917 10e-4,0.001 0.74414,0.74414 5.2e-4,5.2e-4 5.2e-4,5.1e-4 0.0274,0.0274 0.0408,0.0408 0.0522,0.0522 0.0517,0.0517 0.0357,0.0357 0.52916,0.52917 0.0315,0.0315 0.002,0.002 5.1e-4,5.2e-4 1.44436,1.44435 0.001,10e-4 0.0439,0.0439 0.0341,0.0341 0.0269,0.0269 0.52813,0.52813 0.1018,0.10181 10e-4,10e-4 0.36018,0.36018 0.13488,0.13488 5.1e-4,5.2e-4 5.2e-4,5.1e-4 10e-4,0.001 0.0227,0.0227 0.006,0.006 0.002,0.002 10e-4,0.001 0.004,0.004 0.34003,0.34003 0.0387,0.0388 0.0331,0.0331 0.009,0.009 0.10232,0.10181 0.001,10e-4 0.42478,0.4253 0.10077,0.10077 1.3901,1.39009 0.006,0.006 0.007,0.007 0.0387,0.0388 0.0331,0.0331 0.009,0.009 0.52813,0.52814 0.45475,0.45475 0.70332,0.70331 10e-4,5.2e-4 0.36329,0.3638 0.006,0.006 0.007,0.007 0.007,0.007 0.0331,0.0331 0.009,0.009 0.10232,0.1018 10e-4,0.001 0.42478,0.4253 0.1018,0.1018 10e-4,10e-4 0.10852,0.10852 1.26298,1.26297 0.0491,0.0491 0.0346,0.0346 0.0269,0.0269 0.52814,0.52813 0.006,0.006 0.9648,0.9648 0.0408,0.0408 0.0346,0.0346 0.009,0.009 0.52813,0.52813 0.10232,0.10181 10e-4,10e-4 0.42478,0.4253 0.1018,0.1018 10e-4,0.001 0.5271,0.5271 10e-4,0.001 0.41548,0.41547 0.009,0.009 0.52813,0.52813 0.3545,0.35502 0.17364,0.17363 h 5.1e-4 l 1.0139,1.01389 0.0331,0.0331 0.009,0.009 0.10232,0.1018 0.42581,0.42633 1.58389,1.58388 0.52813,0.52813 1.05627,1.05679 h 5.1e-4 l 0.52814,0.52813 0.52813,0.52813 h 5.2e-4 l 0.52761,0.52762 0.0269,0.0269 0.0336,0.0336 0.006,0.006 0.001,10e-4 10e-4,0.001 5.2e-4,5.2e-4 v 5.1e-4 l 5.2e-4,5.2e-4 5.1e-4,5.2e-4 5.2e-4,5.1e-4 0.001,0.001 0.0227,0.0227 0.006,0.006 0.006,0.006 0.34003,0.34003 0.0387,0.0388 0.0331,0.0331 0.009,0.009 0.52813,0.52814 0.14211,0.14211 h 5.2e-4 l 5.2e-4,5.1e-4 0.38498,0.38499 0.52814,0.52814 0.0269,0.0269 0.0336,0.0336 0.006,0.006 10e-4,10e-4 5.2e-4,5.2e-4 v 5.2e-4 l 0.002,0.002 0.001,10e-4 0.002,0.002 0.0274,0.0274 0.006,0.006 0.34003,0.34003 0.0388,0.0387 0.0331,0.0331 0.009,0.009 0.52814,0.52813 0.42633,0.42633 5.1e-4,5.2e-4 h 5.2e-4 l 0.1018,0.1018 0.52814,0.52813 0.0269,0.0269 0.0336,0.0336 0.0506,0.0506 0.32711,0.32711 0.007,0.007 0.006,0.006 0.0222,0.0222 10e-4,10e-4 5.1e-4,5.2e-4 v 5.2e-4 l 0.003,0.003 0.001,10e-4 0.007,0.007 0.0331,0.0331 0.009,0.009 0.52814,0.52813 0.11472,0.11472 5.1e-4,5.2e-4 h 5.2e-4 l 0.41238,0.41238 0.52813,0.52813 0.0274,0.0274 0.0455,0.0455 0.047,0.047 0.2589,0.2589 0.007,0.007 0.007,0.007 0.0243,0.0243 0.005,0.005 v 5.2e-4 l 10e-4,10e-4 0.0439,0.0439 0.0341,0.0341 0.0269,0.0269 0.52813,0.52814 0.16382,0.16381 h 5.1e-4 l 0.36381,0.3638 0.0269,0.0269 0.0336,0.0336 0.0465,0.0465 0.006,0.006 10e-4,0.001 5.2e-4,5.1e-4 5.1e-4,5.2e-4 v 5.2e-4 l 5.2e-4,5.2e-4 5.2e-4,5.1e-4 0.001,0.001 10e-4,10e-4 0.0207,0.0207 0.007,0.007 0.007,0.007 0.29455,0.29456 0.0388,0.0388 0.0331,0.0331 0.009,0.009 0.52813,0.52813 0.52813,0.52762 0.52813,0.52813 0.0269,0.0269 0.0336,0.0336 0.006,0.006 0.001,0.001 5.2e-4,5.2e-4 5.1e-4,5.1e-4 5.2e-4,5.2e-4 v 5.2e-4 l 5.2e-4,5.1e-4 10e-4,0.001 0.001,10e-4 0.0227,0.0227 0.006,0.006 0.006,0.006 0.34003,0.34003 0.0388,0.0388 0.0331,0.0331 0.009,0.009 0.52813,0.52813 0.14211,0.14211 h 5.2e-4 l 0.38551,0.38551 0.52813,0.52813 0.0269,0.0269 0.0336,0.0336 0.005,0.005 v 5.2e-4 l 10e-4,0.001 0.002,0.002 0.0315,0.0315 0.007,0.007 0.34003,0.34003 0.0388,0.0388 0.0331,0.0331 0.009,0.009 0.52916,0.52917 0.45889,0.45888 h 5.2e-4 l 0.0687,0.0687 0.52813,0.52814 0.0269,0.0269 0.002,0.002 v 5.2e-4 l 5.2e-4,5.1e-4 0.003,0.003 0.001,10e-4 10e-4,10e-4 0.0331,0.0331 0.007,0.007 0.008,0.008 0.40152,0.40153 0.0351,0.0351 0.009,0.009 0.52813,0.52813 0.52813,0.52762 0.52814,0.52813 0.0274,0.0274 0.0455,0.0455 0.047,0.047 0.2589,0.2589 0.007,0.007 0.007,0.007 0.0243,0.0243 0.005,0.005 v 5.2e-4 l 10e-4,10e-4 0.0439,0.0439 0.0341,0.0341 0.0269,0.0269 0.52814,0.52813 h 5.1e-4 l 0.52865,0.52865 0.0269,0.0269 0.0336,0.0336 0.046,0.046 0.046,0.046 0.25166,0.25167 10e-4,10e-4 v 5.2e-4 l 0.005,0.005 0.0295,0.0294 0.007,0.007 0.0388,0.0388 0.0331,0.0331 0.009,0.009 0.52813,0.52814 h 5.2e-4 l 0.52761,0.52761 0.52814,0.52814 0.0269,0.0269 0.0336,0.0336 0.006,0.006 0.0336,0.0341 0.006,0.006 0.34003,0.34003 0.0388,0.0387 0.0331,0.0331 0.009,0.009 0.52814,0.52813 h 5.1e-4 l 0.52762,0.52762 0.52813,0.52813 0.0269,0.0269 0.0336,0.0336 0.42582,0.42633 0.0331,0.0331 0.009,0.009 0.52814,0.52813 h 5.1e-4 l 0.52762,0.52762 0.52813,0.52813 0.52762,0.52813 h 0.001 90.64925 l 10e-4,-10e-4 11.64063,-11.64115 v -0.001 -29.63179 l -10e-4,-0.001 -0.52658,-0.52658 v -5.2e-4 l -10e-4,-0.001 -0.5271,-0.5271 -10e-4,-0.001 -0.5271,-0.52658 -10e-4,-0.001 -0.5271,-0.5271 -10e-4,-10e-4 -0.52762,-0.52761 v -5.2e-4 l -0.52813,-0.52813 -0.52814,-0.52762 -0.52761,-0.52761 v -5.2e-4 l -0.52814,-0.52813 -0.001,-0.001 -0.5271,-0.5271 -5.2e-4,-5.1e-4 h -5.1e-4 l -0.5271,-0.5271 -10e-4,-10e-4 -0.52658,-0.52658 v -5.2e-4 l -10e-4,-10e-4 -0.5271,-0.5271 -10e-4,-10e-4 -0.52813,-0.52762 -0.52813,-0.52813 -0.52762,-0.52762 v -5.2e-4 l -0.52813,-0.52813 -1.05627,-1.05575 -10e-4,-10e-4 -0.52658,-0.52659 v -5.1e-4 l -10e-4,-0.001 -0.5271,-0.5271 -10e-4,-0.001 -0.5271,-0.52658 -10e-4,-0.001 -0.0233,-0.0232 -0.50436,-0.50436 v -5.2e-4 l -0.52813,-0.52813 -0.52814,-0.52813 -0.52813,-0.52762 -0.52762,-0.52762 v -5.1e-4 h -5.1e-4 l -0.52762,-0.52762 v -5.2e-4 l -10e-4,-10e-4 -0.5271,-0.5271 -5.2e-4,-5.2e-4 h -5.2e-4 l -0.5271,-0.5271 -10e-4,-10e-4 -0.52658,-0.52658 v -0.003 l -10e-4,-10e-4 -0.52813,-0.52814 -0.52813,-0.52761 -0.52813,-0.52814 -0.52762,-0.52761 v -5.2e-4 l -1.05627,-1.05575 -10e-4,-10e-4 -0.52762,-0.52762 v -5.2e-4 l -0.5271,-0.52709 -0.001,-0.001 -0.5271,-0.5271 -0.001,-10e-4 -0.52814,-0.52762 -0.52761,-0.52761 v -5.2e-4 l -0.52814,-0.52813 -0.52813,-0.52814 -0.59118,-0.59066 -0.0775,-0.0775 -0.0506,-0.0506 -0.008,-0.008 v -5.1e-4 l -0.003,-0.003 -5.1e-4,-5.1e-4 -0.0434,-0.0434 -0.0233,-0.0233 -0.0687,-0.0687 -0.18965,-0.18966 -10e-4,-10e-4 -0.5271,-0.5271 -10e-4,-10e-4 -0.5271,-0.52659 -10e-4,-0.001 -0.5271,-0.5271 -10e-4,-0.001 -0.52762,-0.52762 v -5.2e-4 l -0.52813,-0.52813 -0.52813,-0.52762 -0.52814,-0.52813 -0.52761,-0.52761 -5.2e-4,-5.2e-4 -0.52762,-0.52762 v -5.1e-4 l -10e-4,-10e-4 -0.5271,-0.52658 -10e-4,-10e-4 -0.5271,-0.5271 -5.2e-4,-5.2e-4 v -5.2e-4 l -0.5271,-0.5271 -10e-4,-10e-4 -0.52814,-0.52813 -0.52813,-0.52762 -0.52762,-0.52762 v -5.1e-4 l -0.52813,-0.52814 -0.10283,-0.10283 h -5.2e-4 l -1.00356,-1.00356 -0.004,-0.004 -0.004,-0.004 -0.002,-0.002 -5.1e-4,-5.1e-4 -5.2e-4,-5.2e-4 v -5.2e-4 l -0.004,-0.004 -0.28629,-0.28629 -0.1757,-0.1757 -10e-4,-10e-4 -0.52709,-0.5271 -0.001,-10e-4 -0.5271,-0.52658 -0.001,-10e-4 -0.52813,-0.52814 -0.52762,-0.52761 v -5.2e-4 l -0.52813,-0.52813 -0.52814,-0.52762 -0.52813,-0.52813 -0.0119,-0.0119 -0.51573,-0.51573 -5.1e-4,-5.1e-4 -0.52762,-0.52762 v -5.2e-4 l -0.001,-10e-4 -0.5271,-0.52658 -0.001,-10e-4 -0.5271,-0.5271 v -5.1e-4 l -5.1e-4,-5.2e-4 -0.52814,-0.52813 -0.52813,-0.52814 -0.52813,-0.52761 -0.52762,-0.52762 v -5.2e-4 l -0.52813,-0.52813 -1.05627,-1.05575 -0.001,-10e-4 -0.52658,-0.52659 v -5.1e-4 l -0.001,-10e-4 -0.52813,-0.52813 -0.52813,-0.52762 -0.52814,-0.52813 -0.52761,-0.52761 v -5.2e-4 l -0.52814,-0.52813 -0.52813,-0.52762 -0.5395,-0.5395 -0.51625,-0.51625 v -5.2e-4 l -0.001,-10e-4 -0.5271,-0.5271 -0.001,-10e-4 -0.32917,-0.32918 h -5.2e-4 l -0.19844,-0.19844 -0.52762,-0.52762 v -10e-4 l -0.52813,-0.52814 -0.52813,-0.52761 -0.52813,-0.52814 -0.52762,-0.52761 v -5.2e-4 l -1.05627,-1.05575 -0.001,-10e-4 -0.5271,-0.5271 -0.001,-10e-4 -0.52762,-0.52761 v -5.2e-4 l -0.52813,-0.52813 -0.52814,-0.52762 -0.52813,-0.52813 -0.52762,-0.52762 v -5.1e-4 l -0.52813,-0.52814 -0.60255,-0.60203 -0.006,-0.006 -0.004,-0.004 -0.008,-0.008 -0.004,-0.004 -5.2e-4,-5.2e-4 -0.01,-0.01 -0.0475,-0.0475 -0.16072,-0.16071 -0.0816,-0.0816 -0.13178,-0.13178 -0.52813,-0.52813 -10e-4,-10e-4 -0.52813,-0.52762 -0.52813,-0.52813 -0.52762,-0.52762 v -5.2e-4 l -0.52813,-0.52813 -0.52813,-0.52762 -0.52814,-0.52813 -0.52761,-0.52762 -5.2e-4,-5.1e-4 -0.0119,-0.0119 -0.51573,-0.51573 v -5.1e-4 h -5.1e-4 l -0.52762,-0.52762 -10e-4,-10e-4 -0.52814,-0.52814 -0.52761,-0.52761 v -5.2e-4 l -0.52814,-0.52813 -0.52813,-0.52762 -0.52762,-0.52762 v -5.1e-4 l -0.52813,-0.52814 -1.14205,-1.14153 -0.0672,-0.0672 -0.009,-0.009 -10e-4,-10e-4 -0.0119,-0.0124 -0.008,-0.008 -0.0103,-0.0103 -0.0176,-0.0176 -0.0537,-0.0537 -0.0879,-0.0879 -0.1757,-0.1757 -0.001,-10e-4 -0.52813,-0.52814 -0.52813,-0.52761 -0.52813,-0.52814 -0.52762,-0.52761 v -5.2e-4 l -0.52813,-0.52813 -0.52814,-0.52762 -0.5395,-0.5395 -0.51625,-0.51625 v -5.1e-4 h -5.1e-4 l -0.52762,-0.52762 v -5.2e-4 l -10e-4,-0.001 -0.52814,-0.52762 -0.52761,-0.52761 v -5.2e-4 l -0.52814,-0.52813 -0.52813,-0.52814 -0.52813,-0.52761 -0.52762,-0.52762 v -5.2e-4 l -1.5844,-1.58388 -0.001,-0.001 -0.52762,-0.52762 v -5.2e-4 l -0.52813,-0.52813 -0.52813,-0.52762 -0.15813,-0.15813 v -52.92286 h -10e-4 l -0.52658,-0.52607 v -0.002 h -10e-4 l -0.5271,-0.52658 v -0.002 h -10e-4 l -0.5271,-0.52658 v -0.002 l -0.001,-0.001 -0.5271,-0.52658 -0.001,-0.001 -0.52762,-0.5271 v -0.001 l -0.52813,-0.52814 -0.52814,-0.52813 -0.52761,-0.52762 -0.52814,-0.52761 v -5.2e-4 h -5.1e-4 -5.2e-4 l -0.5271,-0.52658 v -5.2e-4 -10e-4 h -0.001 l -0.5271,-0.52659 v -0.002 h -0.001 l -0.52658,-0.52606 v -0.002 l -0.001,-10e-4 -0.5271,-0.5271 -0.001,-10e-4 -0.52814,-0.52813 -0.52813,-0.52762 -0.52762,-0.5271 v -10e-4 l -0.52813,-0.52814 -0.52813,-0.52761 v -5.2e-4 h -5.2e-4 -5.2e-4 l -0.5271,-0.52658 v -5.2e-4 -5.2e-4 h -5.1e-4 -5.2e-4 l -0.52658,-0.52606 v -5.2e-4 -0.002 h -10e-4 l -0.5271,-0.52658 v -0.002 l -0.001,-0.001 -0.5271,-0.5271 -0.001,-0.001 -0.52762,-0.52761 -0.52813,-0.52814 -0.52814,-0.52813 -0.52813,-0.52813 -0.52762,-0.5271 v -5.2e-4 h -5.1e-4 -5.2e-4 l -0.5271,-0.52658 v -5.2e-4 -0.001 h -0.001 l -0.5271,-0.52659 v -0.002 h -0.001 l -0.5271,-0.52658 v -0.002 h -0.001 l -0.52658,-0.52607 v -0.002 l -0.001,-10e-4 -0.52814,-0.52813 -0.52813,-0.52814 -0.52813,-0.52761 -0.52762,-0.5271 v -0.001 l -0.52813,-0.52761 v -5.2e-4 h -5.2e-4 -5.2e-4 l -0.5271,-0.52658 v -0.002 h -10e-4 l -0.5271,-0.52658 v -0.001 h -5.2e-4 l -0.5271,-0.52658 v -0.002 h -0.001 l -0.5271,-0.52658 v -0.002 l -10e-4,-0.001 -0.52814,-0.52813 -0.52761,-0.52762 -0.52814,-0.52813 -0.52813,-0.52762 v -5.1e-4 l -0.52813,-0.52762 v -5.2e-4 h -5.2e-4 -5.1e-4 l -0.52659,-0.52606 v -0.002 h -10e-4 l -0.5271,-0.52659 v -0.002 h -10e-4 l -0.5271,-0.52658 v -0.002 h -10e-4 l -0.5271,-0.52658 v -10e-4 l -10e-4,-0.001 -0.52762,-0.5271 v -0.001 l -0.52813,-0.52814 -0.52813,-0.52813 -0.52814,-0.52761 -0.52761,-0.5271 v -0.001 h -0.001 l -0.5271,-0.52658 v -0.002 h -0.001 l -0.5271,-0.52658 v -0.002 h -0.001 l -0.5271,-0.52659 v -0.001 h -5.2e-4 l -0.5271,-0.52658 v -0.002 l -0.001,-0.001 -0.52814,-0.52813 -0.52813,-0.52813 -0.52761,-0.52762 -0.52814,-0.52762 v -5.1e-4 l -0.52813,-0.52762 v -5.2e-4 h -5.2e-4 -5.1e-4 l -0.5271,-0.52658 v -0.001 h -5.2e-4 -5.2e-4 l -0.52658,-0.52607 v -0.002 h -10e-4 l -0.5271,-0.52658 v -0.002 h -10e-4 l -0.5271,-0.52658 v -0.002 l -10e-4,-0.001 -0.52813,-0.52761 -0.52762,-0.5271 v -10e-4 l -0.52813,-0.52814 -0.52814,-0.5271 v -5.1e-4 -5.2e-4 l -0.52865,-0.52762 -0.5271,-0.52658 v -0.002 h -10e-4 l -0.5271,-0.52658 v -0.002 h -10e-4 l -0.5271,-0.52659 v -0.002 h -0.001 l -0.52709,-0.52658 v -0.001 h -5.2e-4 l -0.52813,-0.52814 v -10e-4 l -0.52814,-0.52813 -0.52813,-0.52814 -0.52762,-0.52658 v -5.2e-4 -5.1e-4 l -0.52813,-0.52762 v -5.2e-4 l -0.52813,-0.52761 v -5.2e-4 h -5.2e-4 -5.2e-4 l -0.5271,-0.52658 v -0.001 h -5.1e-4 -5.2e-4 l -0.52658,-0.52606 v -0.002 h -0.001 l -0.52813,-0.52813 -0.52813,-0.52813 v -10e-4 l -0.52814,-0.52761 -0.52761,-0.5271 v -0.001 l -0.52814,-0.5271 v -5.1e-4 -5.2e-4 l -0.52813,-0.52762 v -5.1e-4 l -0.52865,-0.52762 -0.5271,-0.52658 v -0.002 h -0.001 l -0.5271,-0.52659 v -0.002 h -0.001 l -0.52814,-0.52813 -0.52761,-0.52762 v -10e-4 l -0.52814,-0.52813 -0.52813,-0.52814 -0.52813,-0.5271 v -5.1e-4 l -0.52762,-0.5271 v -10e-4 l -0.52813,-0.52761 v -5.2e-4 h -5.2e-4 -5.2e-4 l -0.5271,-0.52658 v -0.002 h -10e-4 l -0.5271,-0.52658 v -0.001 h -10e-4 l -0.52762,-0.5271 v -10e-4 l -0.52813,-0.52813 v -0.001 l -0.52814,-0.52813 -0.52813,-0.52762 -0.52762,-0.5271 v -10e-4 l -0.53091,-0.51668 v -5.1e-4 l -0.52813,-0.52762 v -5.2e-4 h -5.2e-4 -5.2e-4 l -0.52658,-0.52606 v -0.002 h -10e-4 l -0.5271,-0.52659 v -0.002 h -10e-4 l -0.52814,-0.52813 -0.52813,-0.52813 v -5.2e-4 l -0.52762,-0.5271 v -0.001 l -0.52813,-0.52814 -0.52813,-0.52709 v -5.2e-4 -5.2e-4 l -0.52814,-0.52761 -0.52761,-0.5271 v -0.001 h -0.001 l -0.5271,-0.52658 v -0.002 h -0.001 l -0.5271,-0.52658 v -0.002 h -0.001 l -0.52814,-0.52762 -0.52761,-0.5271 v -0.001 l -0.52814,-0.52814 v -0.001 l -0.52813,-0.52813 -0.52761,-0.52659 v -5.1e-4 -5.2e-4 l -0.52814,-0.52762 v -5.1e-4 l -0.52813,-0.52762 v -5.2e-4 h -5.2e-4 -5.1e-4 l -0.5271,-0.52658 v -0.002 h -0.001 l -0.52658,-0.52607 v -0.002 h -0.001 l -0.52814,-0.52813 -0.52813,-0.52813 -0.52813,-0.52814 v -5.1e-4 l -0.52762,-0.5271 v -0.001 l -0.52813,-0.5271 v -5.2e-4 -5.2e-4 l -0.52814,-0.52761 v -5.2e-4 l -1.05575,-1.05472 v -0.001 h -10e-4 l -0.5271,-0.52658 v -0.002 h -10e-4 l -0.52814,-0.52814 -0.52761,-0.52761 -0.52813,-0.52814 v -0.001 l -0.52814,-0.52813 -0.52813,-0.5271 v -5.2e-4 -5.2e-4 l -0.52762,-0.5271 v -5.1e-4 l -0.52813,-0.52762 v -5.2e-4 h -5.2e-4 -5.1e-4 l -0.5271,-0.52658 v -0.002 h -10e-4 l -0.5271,-0.52658 v -0.002 h -10e-4 l -0.52762,-0.52762 -0.52813,-0.52813 -0.52813,-0.52813 v -0.001 l -0.52814,-0.52761 -0.52761,-0.5271 v -10e-4 l -0.52814,-0.5271 v -5.1e-4 -5.2e-4 l -0.52813,-0.52762 v -5.1e-4 h -5.2e-4 -5.1e-4 l -0.5271,-0.52659 v -0.001 h -5.2e-4 -5.2e-4 l -0.52658,-0.52607 v -0.002 h -10e-4 l -0.52814,-0.52814 -0.52813,-0.52813 -0.52761,-0.52762 v -10e-4 l -0.52814,-0.52813 -0.52813,-0.5271 v -5.2e-4 -5.2e-4 l -0.52813,-0.5271 v -5.1e-4 -5.2e-4 l -0.52762,-0.5271 v -5.2e-4 h -5.2e-4 -5.1e-4 l -0.5271,-0.52658 v -0.002 h -0.001 l -0.5271,-0.52658 v -0.002 h -10e-4 l -0.52813,-0.52813 -0.52762,-0.52762 -0.52813,-0.52813 -0.52814,-0.52814 v -0.001 l -0.52813,-0.52762 -0.52762,-0.5271 v -0.001 l -0.52813,-0.52762 v -5.1e-4 h -5.2e-4 -5.1e-4 l -0.5271,-0.52659 v -0.002 h -10e-4 l -0.52709,-0.52658 v -0.001 h -5.2e-4 l -0.52813,-0.52814 -0.52814,-0.52813 -0.52813,-0.52813 -0.52762,-0.52762 v -0.001 l -0.52813,-0.5271 v -5.2e-4 -5.2e-4 l -0.52813,-0.5271 v -5.1e-4 -5.2e-4 l -0.52814,-0.52761 v -5.2e-4 h -5.1e-4 -5.2e-4 l -0.52658,-0.52607 v -0.002 h -10e-4 l -0.5271,-0.52658 v -0.002 h -10e-4 l -0.52813,-0.52813 -0.52814,-0.52762 -0.52761,-0.5271 v -0.001 l -0.52814,-0.52814 v -0.001 l -0.52813,-0.5271 v -5.2e-4 -5.1e-4 l -0.52813,-0.52762 -0.52762,-0.5271 v -0.001 h -0.001 l -0.5271,-0.52659 v -0.002 h -0.001 l -0.5271,-0.52658 v -0.002 h -10e-4 l -0.52761,-0.52762 -0.52814,-0.52813 -0.52813,-0.52813 -0.52813,-0.52814 v -0.001 l -0.52762,-0.52658 v -5.2e-4 -5.2e-4 l -0.52813,-0.52709 v -5.2e-4 -5.2e-4 l -0.52814,-0.52761 v -5.2e-4 h -5.1e-4 -5.2e-4 l -0.5271,-0.52658 v -0.001 h -5.2e-4 -5.1e-4 l -0.52659,-0.52606 v -0.002 h -0.001 l -0.52813,-0.52813 -0.52814,-0.52814 -0.52813,-0.52761 -0.52762,-0.5271 v -0.001 -0.001 l -0.52813,-0.5271 v -5.2e-4 -5.1e-4 l -0.52813,-0.5271 v -5.2e-4 -5.2e-4 l -0.52865,-0.52761 -0.5271,-0.52659 v -0.002 h -0.001 l -0.5271,-0.52658 v -0.002 h -0.001 l -0.52813,-0.52813 -0.52762,-0.52762 -0.52813,-0.52813 -0.52813,-0.52813 -0.52814,-0.52814 v -5.1e-4 l -0.52761,-0.5271 v -0.001 l -0.52814,-0.52761 v -5.2e-4 h -5.1e-4 -5.2e-4 l -0.5271,-0.52658 v -0.002 h -0.001 l -0.5271,-0.52659 v -0.001 h -0.001 l -0.52761,-0.5271 v -10e-4 l -0.52814,-0.52814 -0.52813,-0.52813 -0.52813,-0.52762 -0.52762,-0.5271 v -0.001 -0.001 l -0.52813,-0.5271 v -5.2e-4 -5.2e-4 l -0.52813,-0.52761 v -5.2e-4 h -5.2e-4 -5.2e-4 l -0.5271,-0.52658 v -0.001 h -5.1e-4 l -0.5271,-0.52658 v -0.002 h -10e-4 l -0.52813,-0.52813 -0.52813,-0.52813 -0.52762,-0.52762 -0.52813,-0.52813 -0.52814,-0.52814 v -0.001 l -0.52813,-0.5271 v -5.2e-4 l -0.52762,-0.5271 -10e-4,-0.001 -0.5271,-0.52658 v -0.002 h -0.001 l -0.5271,-0.52659 v -0.002 h -0.001 l -0.52813,-0.52761 -0.52761,-0.5271 v -0.001 l -0.52814,-0.52813 -0.52813,-0.52813 -0.52813,-0.52762 v -0.001 l -0.52762,-0.5271 v -0.001 l -0.52813,-0.5271 -10e-4,-0.001 -0.5271,-0.52658 v -0.002 h -0.001 l -0.52658,-0.52607 v -0.002 h -0.001 l -0.52813,-0.52813 -0.52813,-0.52813 -0.52814,-0.52814 -0.52761,-0.52761 -0.52814,-0.52814 v -0.001 l -0.52813,-0.5271 v -5.2e-4 -5.1e-4 l -1.05575,-1.05472 v -0.001 h -10e-4 l -0.52813,-0.52814 -0.52814,-0.52813 -0.52813,-0.52762 -0.52762,-0.5271 v -0.001 l -0.52813,-0.52813 -0.52813,-0.52814 -0.52762,-0.52761 v -0.001 l -0.52813,-0.52709 -10e-4,-0.001 -0.5271,-0.52658 v -0.002 h -0.001 l -0.52813,-0.52813 -0.52762,-0.52762 -0.52813,-0.52813 -0.52814,-0.52814 -0.52813,-0.52813 -0.52762,-0.52762 -0.52813,-0.52813 v -0.001 l -0.52813,-0.5271 -10e-4,-0.001 -0.5271,-0.52658 v -0.001 h -5.2e-4 -5.2e-4 l -0.52761,-0.5271 v -10e-4 l -0.52814,-0.52813 -0.52813,-0.52813 -0.52762,-0.52762 -0.52813,-0.52813 -0.52813,-0.52813 -0.52814,-0.52814 v -0.001 l -0.52761,-0.52658 -0.001,-0.001 -0.5271,-0.52658 v -0.002 h -0.001 l -0.52813,-0.52813 -0.52814,-0.52814 -0.52761,-0.52761 -0.52814,-0.52814 -0.52813,-0.52813 -0.52813,-0.52762 -0.52762,-0.5271 v -0.001 -0.001 l -0.52813,-0.5271 -0.001,-0.001 -0.5271,-0.52658 v -0.002 h -0.001 l -0.52761,-0.52762 -0.52814,-0.52813 -0.52813,-0.52813 -0.52813,-0.52813 -0.52762,-0.52762 -0.52813,-0.52813 -0.52814,-0.52814 v -0.001 l -0.52813,-0.5271 -0.001,-0.001 -0.52659,-0.52607 v -0.002 h -0.001 l -0.52813,-0.52813 -0.52814,-0.52814 -0.52813,-0.52761 -0.52761,-0.5271 v -0.001 l -0.52814,-0.52813 -0.52813,-0.52813 -0.52813,-0.52762 -0.52762,-0.5271 v -0.001 l -0.001,-10e-4 -0.5271,-0.52658 v -0.002 h -0.001 l -0.52813,-0.52813 -0.52762,-0.52762 -0.52813,-0.52813 -0.52813,-0.52813 -0.52814,-0.52814 -0.52761,-0.52761 -0.52814,-0.52814 -0.52813,-0.52813 -0.001,-0.001 -0.5271,-0.52659 v -0.002 h -0.001 l -0.52761,-0.52761 -0.52813,-0.52814 -0.52814,-0.52813 -0.52813,-0.52762 -0.52762,-0.5271 v -0.001 l -0.52813,-0.52813 -0.52813,-0.52814 -0.52865,-0.52865 -0.5271,-0.52709 -10e-4,-0.001 -0.52813,-0.52813 -0.52813,-0.52813 -0.52762,-0.52762 -0.52813,-0.52813 -0.52814,-0.52814 -0.52813,-0.52813 -0.52762,-0.52762 -0.52813,-0.52813 -0.001,-0.001 -0.5271,-0.5271 -10e-4,-0.001 -0.52813,-0.52761 -0.52761,-0.5271 v -0.001 l -0.52814,-0.52813 -0.52813,-0.52813 -0.52813,-0.52762 -0.52762,-0.5271 v -0.001 l -0.52813,-0.52813 -0.52814,-0.52814 -0.001,-10e-4 -0.52762,-0.52762 -0.52813,-0.52813 -0.52813,-0.52813 -0.52814,-0.52814 -0.52761,-0.52761 -0.52814,-0.52814 -0.52813,-0.52813 -0.52813,-0.52813 -0.52762,-0.52762 -0.001,-0.001 -0.5271,-0.5271 -0.001,-0.001 -0.52814,-0.52813 -0.52813,-0.52762 -0.52762,-0.5271 v -0.001 l -0.52813,-0.52813 -0.52813,-0.52814 -0.52814,-0.52761 -0.52761,-0.5271 v -0.001 l -0.52814,-0.52814 -0.52813,-0.52813 -10e-4,-0.001 -0.52762,-0.52762 -0.52813,-0.52813 -0.52814,-0.52814 -0.52813,-0.52813 -0.52761,-0.52762 -0.52814,-0.52813 -0.52813,-0.52813 -0.52813,-0.52814 -0.52762,-0.52761 -0.001,-0.001 -0.52814,-0.52813 -0.52813,-0.52813 -0.52813,-0.52762 -0.52762,-0.5271 v -10e-4 l -0.52813,-0.52813 -0.52814,-0.52814 -0.52761,-0.52761 -0.52814,-0.52814 -0.52813,-0.52813 -10e-4,-0.001 -0.52814,-0.52814 -0.52761,-0.52761 -0.52814,-0.52814 -0.52813,-0.52761 v -5.2e-4 l -0.52813,-0.52813 -0.52762,-0.52762 -0.52813,-0.52813 -0.52813,-0.52814 -0.52814,-0.52761 -0.001,-10e-4 -0.52762,-0.5271 v -0.001 l -0.52813,-0.52813 -0.52813,-0.52813 -0.52814,-0.52762 -0.52761,-0.5271 v -0.001 l -0.52814,-0.52814 -0.52813,-0.52813 -0.52762,-0.52762 -0.52813,-0.52813 -10e-4,-10e-4 -0.52814,-0.52814 -0.52813,-0.52813 -0.52761,-0.52762 -0.52814,-0.52761 v -5.2e-4 l -0.52813,-0.52762 v -5.1e-4 l -0.52813,-0.52762 v -5.2e-4 l -0.52762,-0.52761 -0.52813,-0.52814 -0.52865,-0.52813 h -5.2e-4 l -0.001,-10e-4 -0.5271,-0.5271 v -5.2e-4 l -0.52762,-0.527611 v -5.16e-4 l -0.53007,-0.517213 -0.52814,-0.527617 -0.52761,-0.527099 v -10e-4 l -0.52814,-0.528133 -0.52813,-0.528133 -0.52813,-0.528133 -0.52762,-0.5271 v -10e-4 h -0.001 l -0.52813,-0.527617 v -5.17e-4 l -0.52814,-0.528133 -0.52813,-0.528133 -0.52762,-0.527099 v -0.001 l -0.52813,-0.528133 -0.52813,-0.528133 -0.52814,-0.528133 -0.52761,-0.5271 v -0.001 l -0.52917,-0.528134 -0.52813,-0.528133 -0.52762,-0.527099 v -10e-4 l -0.52813,-0.528133 -0.52814,-0.527616 v -5.17e-4 l -0.52813,-0.527616 v -6.85e-4 l -0.52762,-0.527617 v -2.41e-4 l -0.52813,-0.527617 -0.52813,-0.528133 -0.5302,-0.529167 -0.52658,-0.526582 v -5.17e-4 l -0.52814,-0.528133 -0.52813,-0.528133 -0.52813,-0.528134 -0.52762,-0.527099 v -10e-4 l -0.52813,-0.528133 -0.52814,-0.528133 -0.52813,-0.528133 -0.52865,-0.528133 -0.52813,-0.527617 v -5.16e-4 l -0.52814,-0.528133 -0.52761,-0.5271 v -0.001 l -0.52814,-0.528133 -0.52813,-0.527616 v -5.17e-4 l -0.52813,-0.527616 v -5.17e-4 l -0.52762,-0.5271 v -0.001 l -0.52813,-0.527616 v -5.17e-4 l -0.52917,-0.528133 -0.52813,-0.528134 -0.52762,-0.527616 -0.52813,-0.528133 -0.52813,-0.528133 -0.52814,-0.528133 -0.52761,-0.5271 v -10e-4 l -0.52814,-0.528134 -0.52813,-0.528133 -0.52865,-0.528133 -0.52813,-0.527616 v -5.17e-4 l -0.52814,-0.528133 -0.52813,-0.528133 -0.52761,-0.5271 v -9.99e-4 l -0.52814,-0.528133 -0.52813,-0.528135 -0.52813,-0.528133 -0.52762,-0.527099 v -9.99e-4 l -0.52917,-0.528133 -0.52813,-0.528133 -0.52813,-0.528133 -0.52762,-0.527617 v -5.16e-4 l -0.52813,-0.527617 v -5.17e-4 l -0.52814,-0.527616 v -5.17e-4 l -0.52813,-0.527616 -0.52762,-0.5271 v -0.001 l -0.52813,-0.528133 -0.5302,-0.529167 -0.52658,-0.526583 v -5.17e-4 l -0.52813,-0.528133 -0.52814,-0.528133 -0.52813,-0.528133 -0.52762,-0.5271 v -10e-4 l -0.52813,-0.528133 -0.52813,-0.528133 -0.52814,-0.528133 -0.52865,-0.528134 -0.52813,-0.527616 v -5.17e-4 l -0.52813,-0.528133 -0.52814,-0.528133 -0.52761,-0.5271 v -0.001 l -0.52814,-0.527616 v -5.17e-4 l -0.52813,-0.527617 -0.52813,-0.528133 -0.52762,-0.527099 v -0.0016 l -1.0573,-1.055749 -0.52761,-0.5271 v -10e-4 l -0.52814,-0.528133 -0.52813,-0.528134 -10.58489,-10.574548 h -5.2e-4 z"
       inkscape:label="Shadow" />
    <path
       style="display:inline;fill:#ffffff;fill-opacity:1;stroke:none;stroke-width:0.1;stroke-linecap:round;stroke-linejoin:round;paint-order:stroke fill markers"
       d="m 52.916666,38.149999 0,143.522161 30,30 h 90.649994 l 11.64167,-11.64167 v -29.63332 l -11.64167,-11.64167 -57.73333,0 -10,-10 0,-110.655501 -11.641662,-11.630667 -29.63334,0.028 z"
       id="path11744"
       sodipodi:nodetypes="ccccccc"
       inkscape:label="L"
       inkscape:original-d="M 52.916666,26.508332 V 211.67216 H 185.20833 V 158.7555 h -79.375 V 26.458332 Z"
       inkscape:path-effect="#path-effect11745"
       transform="translate(13.229167,13.220919)" />
  </g>
</svg>
